<svg xmlns="http://www.w3.org/2000/svg" width="24" height="24" viewBox="0 0 24 24"><g fill="#3AF"><path d="M6.146 10.742a1.365 1.365 0 0 0-.84-.296c-.752 0-1.363.613-1.363 1.365 0 .436.21.838.552 1.091.283-.812.859-1.549 1.651-2.16zm11.67-3.366a1.02 1.02 0 0 0 0-2.038 1.02 1.02 0 0 0-1.02 1.018c0 .562.458 1.02 1.02 1.02z"/><path d="M11.97 0C5.36 0 0 5.36 0 11.97s5.36 11.969 11.97 11.969 11.969-5.36 11.969-11.97S18.579 0 11.969 0zm7.555 13.477c.033.189.053.38.053.575 0 2.8-3.429 5.08-7.644 5.08s-7.644-2.28-7.644-5.08c0-.207.024-.41.06-.61a1.894 1.894 0 0 1-.938-1.63c0-1.046.85-1.896 1.894-1.896.478 0 .932.19 1.28.512 1.35-.88 3.184-1.428 5.21-1.452l1.178-3.73a.265.265 0 0 1 .315-.178l3.086.727a1.55 1.55 0 0 1 1.441-.988c.854 0 1.55.695 1.55 1.55 0 .854-.696 1.55-1.55 1.55-.855 0-1.55-.696-1.55-1.55 0-.015.004-.028.005-.042l-2.864-.675-1.058 3.345c1.937.07 3.686.615 4.978 1.47a1.87 1.87 0 0 1 1.306-.539c1.044 0 1.895.85 1.895 1.895a1.882 1.882 0 0 1-1.003 1.666z"/><path d="M8.244 13.112a1.13 1.13 0 0 1 1.128-1.128 1.129 1.129 0 1 1-1.128 1.128zm6.461 3.343c-.568.569-1.46.845-2.727.845-.002 0-.005-.003-.009-.003-.003 0-.006.003-.01.003-1.266 0-2.158-.276-2.726-.845a.265.265 0 0 1 .375-.375c.464.464 1.233.69 2.352.69l.01.001.008-.002c1.12 0 1.889-.225 2.352-.689a.265.265 0 1 1 .375.375zm-.134-2.216a1.129 1.129 0 0 1 0-2.255 1.129 1.129 0 0 1 0 2.255zm4.061-3.793c-.325 0-.63.118-.874.322.787.616 1.356 1.358 1.63 2.174a1.35 1.35 0 0 0 .608-1.131c0-.752-.611-1.365-1.364-1.365z"/></g></svg>