<svg xmlns="http://www.w3.org/2000/svg" width="24" height="23" viewBox="0 0 24 23"><path fill="#3AF" d="M24 14.032v8.854h-5.144v-8.261c0-2.076-.744-3.492-2.606-3.492-1.421 0-2.267.954-2.64 1.878-.135.33-.17.79-.17 1.251v8.624H8.294s.07-13.992 0-15.442h5.146v2.189l-.034.05h.034v-.05c.683-1.05 1.904-2.552 4.637-2.552 3.385 0 5.923 2.207 5.923 6.95zM2.912 0C1.152 0 0 1.152 0 2.668c0 1.482 1.118 2.67 2.843 2.67h.035c1.794 0 2.91-1.188 2.91-2.67C5.754 1.152 4.672 0 2.912 0zM.306 22.886h5.143V7.444H.306v15.442z"/></svg>