<svg xmlns="http://www.w3.org/2000/svg" width="194" height="40" viewBox="0 0 194 40"><g fill="none" fill-rule="evenodd"><path fill="#3AF" d="M4.048 36.893H28.34v2.98H0v-2.53L23.729 3.21H0V.231h27.777v2.53zM110.087.231h3.43v39.642h-3.43V21.26H84.784v18.612h-3.43V.23h3.43v17.993h25.303zm13.663 39.642V.23h24.46v2.98h-21.03v15.013h19.906v3.037H127.18v15.632h21.03v2.98zM190.382.231h2.924v39.642h-3.261V7.147l-13.889 26.484h-2.587l-14-26.259.056 32.5h-3.318V.233h2.924l15.688 30.025z"/><path fill="#0080FF" d="M67.958 20.174c1.228 8.56-4.003 15.358-4.003 15.358s.242.25.51.467c.813-.71 1.167-1.116 1.885-1.972C73.726 25.302 73 12.443 64.94 4.6a22.063 22.063 0 0 1-2.473 3.606l-.311.363a21.437 21.437 0 0 1 5.802 11.605"/><path fill="#3AF" d="M43.556 5.88C50.352.536 58.86 1.67 58.86 1.67s.095-.337.147-.675C57.98.64 57.46.544 56.354.346 45.12-1.678 34.346 5.379 31.579 16.283a21.931 21.931 0 0 1 4.358.337c.156.026.312.06.467.087A21.62 21.62 0 0 1 43.556 5.88"/><path fill="#6CF" d="M43.504 34.01c-8.025-3.217-11.302-11.147-11.302-11.147s-.346.087-.658.208c.208 1.064.39 1.565.77 2.62C36.18 36.44 47.68 42.242 58.507 39.19a21.782 21.782 0 0 1-1.885-3.944l-.156-.45a21.587 21.587 0 0 1-12.962-.786"/></g></svg>