<svg xmlns="http://www.w3.org/2000/svg" width="758" height="399" viewBox="0 0 758 399"><g fill="none" fill-rule="evenodd"><path fill="#0080FF" fill-rule="nonzero" d="M709.928 199.314c0-83.748-67.886-151.619-151.62-151.619-83.733 0-151.618 67.886-151.618 151.62h47.428c0-42.15 25.391-80.149 64.333-96.276 38.942-16.128 83.765-7.209 113.565 22.599 29.801 29.807 38.711 74.632 22.575 113.57-16.136 38.938-54.14 64.321-96.29 64.312v47.429c83.74 0 151.627-67.894 151.627-151.635z"/><path fill="#0059B3" fill-rule="nonzero" d="M558.301 95.109c-42.144.003-80.136 25.391-96.264 64.326-16.128 38.936-7.216 83.752 22.58 113.555l33.524-33.523c-19.148-19.153-22.1-49.165-7.052-71.682 15.049-22.517 43.908-31.268 68.928-20.902 25.02 10.366 39.234 36.963 33.95 63.525-5.286 26.562-28.598 45.692-55.681 45.691v47.429c57.553.004 104.213-46.649 104.217-104.202.004-57.554-46.649-104.213-104.202-104.217z"/><path fill="#3AF" fill-rule="nonzero" d="M558.301.229a198.438 198.438 0 0 0-140.762 58.3l33.524 33.524a151.162 151.162 0 0 1 107.223-44.411c83.74 0 151.619 67.886 151.619 151.619S642.019 350.88 558.285 350.88v47.429c109.944 0 199.064-89.143 199.064-199.063C757.349 89.326 668.236.229 558.3.229z"/><path stroke="#3D3F5C" stroke-width=".3" d="M543.048 282.429h-31.383a6.354 6.354 0 0 0-3.901 1.615l-14.012 14.011a6.362 6.362 0 0 1-3.9 1.615H0m543.048 30.187h-61.882a6.354 6.354 0 0 0-3.901 1.615l-14.012 14.012a6.362 6.362 0 0 1-3.9 1.615H0m543.048 30.187H458.3a6.354 6.354 0 0 0-3.901 1.615l-14.011 14.042a6.362 6.362 0 0 1-3.901 1.615H0"/><path fill="#0059B3" d="M8.896 280.712a4.403 4.403 0 0 0-1.224-.568 5.596 5.596 0 0 0-1.624-.216c-.576 0-1.07.09-1.48.272a2.53 2.53 0 0 0-1 .768A3.3 3.3 0 0 0 3 282.16a6.038 6.038 0 0 0-.184 1.544c0 1.29.275 2.267.824 2.928.55.661 1.341.992 2.376.992.64 0 1.224-.096 1.752-.288.528-.192.963-.427 1.304-.704l.48 1.584a7.608 7.608 0 0 1-1.544.68c-.603.197-1.283.296-2.04.296-.875 0-1.632-.144-2.272-.432a4.492 4.492 0 0 1-1.592-1.168 4.784 4.784 0 0 1-.936-1.704 6.823 6.823 0 0 1-.304-2.056c0-.757.112-1.467.336-2.128a4.969 4.969 0 0 1 1-1.736 4.713 4.713 0 0 1 1.648-1.176c.656-.288 1.421-.432 2.296-.432.576 0 1.152.061 1.728.184.576.123 1.072.29 1.488.504l-.464 1.664zm9.944-2.352c.832 0 1.568.144 2.208.432.64.288 1.179.68 1.616 1.176.437.496.768 1.07.992 1.72.224.65.336 1.333.336 2.048 0 .704-.11 1.384-.328 2.04a5.047 5.047 0 0 1-.992 1.744 4.878 4.878 0 0 1-1.648 1.216c-.656.304-1.421.456-2.296.456-.853 0-1.595-.144-2.224-.432a4.447 4.447 0 0 1-1.568-1.168 4.954 4.954 0 0 1-.936-1.704 6.609 6.609 0 0 1-.312-2.04c0-.757.115-1.47.344-2.136a5.126 5.126 0 0 1 1-1.744 4.685 4.685 0 0 1 1.616-1.176c.64-.288 1.37-.432 2.192-.432zm-.08 9.264c.587 0 1.085-.099 1.496-.296.41-.197.75-.47 1.016-.816.267-.347.461-.755.584-1.224.123-.47.184-.97.184-1.504 0-.576-.064-1.099-.192-1.568a3.405 3.405 0 0 0-.592-1.216 2.667 2.667 0 0 0-1.016-.792c-.41-.187-.893-.28-1.448-.28-.565 0-1.048.093-1.448.28a2.56 2.56 0 0 0-.976.776c-.25.33-.432.725-.544 1.184a6.409 6.409 0 0 0-.168 1.52c0 1.301.267 2.283.8 2.944s1.301.992 2.304.992zm13.016-3.136h-.36a4.96 4.96 0 0 1-.392-.016V289h-1.84v-10.56l.584-.032c.219-.01.44-.019.664-.024.224-.005.435-.01.632-.016.197-.005.355-.008.472-.008 1.365 0 2.405.259 3.12.776.715.517 1.072 1.272 1.072 2.264 0 .63-.155 1.195-.464 1.696-.31.501-.827.875-1.552 1.12L37.584 289h-2.128l-3.68-4.512zm-.08-4.592h-.304c-.117 0-.24.005-.368.016v3.04h.992c.576 0 1.013-.144 1.312-.432.299-.288.448-.699.448-1.232 0-.48-.147-.832-.44-1.056-.293-.224-.84-.336-1.64-.336zM46.92 284.2h-3.2v3.2h4.592v1.6H41.88v-10.56h6.112v1.6H43.72v2.56h3.2v1.6z"/><path fill="#0080FF" d="M7.228 333.504l3.504-8.064h2.096V336h-1.824v-6.96L7.964 336H6.492l-3.12-6.96V336h-1.84v-10.56h2.096l3.6 8.064zM27.46 336h-2l-1.2-3.072h-3.984L19.188 336h-1.92l4.096-10.56h1.584L27.46 336zm-6.672-4.512h2.896l-1.52-3.888-1.376 3.888zm17.8 1.712v-7.76h1.84V336h-2.256l-4.64-7.744V336h-1.84v-10.56h2.256l4.64 7.76zm14.536-6.16h-3.056V336h-1.84v-8.96h-3.056v-1.6h7.952v1.6zm6.584 7.36h4.4v1.6h-6.24v-10.56h1.84v8.96zm14.152-3.2h-3.2v3.2h4.592v1.6H68.82v-10.56h6.112v1.6H70.66v2.56h3.2v1.6z"/><path fill="#3AF" d="M9.22 374.712a4.403 4.403 0 0 0-1.224-.568 5.596 5.596 0 0 0-1.624-.216c-.576 0-1.07.09-1.48.272a2.53 2.53 0 0 0-1 .768 3.3 3.3 0 0 0-.568 1.192 6.038 6.038 0 0 0-.184 1.544c0 1.29.275 2.267.824 2.928.55.661 1.341.992 2.376.992.64 0 1.224-.096 1.752-.288.528-.192.963-.427 1.304-.704l.48 1.584a7.608 7.608 0 0 1-1.544.68c-.603.197-1.283.296-2.04.296-.875 0-1.632-.144-2.272-.432a4.492 4.492 0 0 1-1.592-1.168 4.784 4.784 0 0 1-.936-1.704 6.823 6.823 0 0 1-.304-2.056c0-.757.112-1.467.336-2.128a4.969 4.969 0 0 1 1-1.736 4.713 4.713 0 0 1 1.648-1.176c.656-.288 1.421-.432 2.296-.432.576 0 1.152.061 1.728.184.576.123 1.072.29 1.488.504l-.464 1.664zm8.216 3.776h-.36a4.96 4.96 0 0 1-.392-.016V383h-1.84v-10.56l.584-.032c.219-.01.44-.019.664-.024.224-.005.435-.01.632-.016.197-.005.355-.008.472-.008 1.365 0 2.405.259 3.12.776.715.517 1.072 1.272 1.072 2.264 0 .63-.155 1.195-.464 1.696-.31.501-.827.875-1.552 1.12L23.244 383h-2.128l-3.68-4.512zm-.08-4.592h-.304c-.117 0-.24.005-.368.016v3.04h.992c.576 0 1.013-.144 1.312-.432.299-.288.448-.699.448-1.232 0-.48-.147-.832-.44-1.056-.293-.224-.84-.336-1.64-.336zm11.816 5.008c0 .97.224 1.667.672 2.088.448.421 1.072.632 1.872.632s1.427-.21 1.88-.632c.453-.421.68-1.117.68-2.088v-6.464h1.76v6.848a4.32 4.32 0 0 1-.256 1.488c-.17.47-.435.883-.792 1.24-.357.357-.816.64-1.376.848-.56.208-1.224.312-1.992.312s-1.424-.104-1.968-.312c-.544-.208-.99-.49-1.336-.848a3.196 3.196 0 0 1-.752-1.24 4.724 4.724 0 0 1-.232-1.488v-6.848h1.84v6.464zm13.896-3.92c0 .224.05.416.152.576.101.16.243.299.424.416.181.117.397.227.648.328.25.101.53.205.84.312.384.139.765.296 1.144.472.379.176.72.395 1.024.656.304.261.552.584.744.968.192.384.288.848.288 1.392 0 .576-.104 1.061-.312 1.456a2.594 2.594 0 0 1-.84.952c-.352.24-.757.413-1.216.52-.459.107-.933.16-1.424.16a7.345 7.345 0 0 1-1.976-.256 7.135 7.135 0 0 1-1.576-.624l.48-1.728c.405.31.856.565 1.352.768.496.203 1.064.304 1.704.304.683 0 1.179-.12 1.488-.36.31-.24.464-.563.464-.968 0-.31-.075-.573-.224-.792a2.15 2.15 0 0 0-.56-.56 3.371 3.371 0 0 0-.712-.376c-.25-.096-.472-.176-.664-.24a11.28 11.28 0 0 1-1.04-.384 4.12 4.12 0 0 1-.976-.584 2.765 2.765 0 0 1-.728-.904c-.187-.363-.28-.816-.28-1.36 0-.512.088-.944.264-1.296.176-.352.416-.637.72-.856a2.972 2.972 0 0 1 1.072-.472 5.86 5.86 0 0 1 1.336-.144c.587 0 1.155.059 1.704.176.55.117 1.01.261 1.384.432l-.432 1.696a3.87 3.87 0 0 0-.624-.336 5.1 5.1 0 0 0-.696-.24 6.923 6.923 0 0 0-.72-.152 4.433 4.433 0 0 0-.68-.056c-.48 0-.859.09-1.136.272-.277.181-.416.459-.416.832zm17.208-.944H57.22V383h-1.84v-8.96h-3.056v-1.6h7.952v1.6z"/></g></svg>