<svg xmlns="http://www.w3.org/2000/svg" width="510" height="510" viewBox="0 0 510 510"><g fill="none" fill-rule="evenodd"><path fill="#3AF" d="M93.002 313.505A165.85 165.85 0 0 0 90 345c0 91.127 73.873 165 165 165s165-73.873 165-165c0-10.77-1.032-21.3-3.002-31.495C395.24 324.073 370.813 330 345 330c-33.204 0-64.117-9.808-90-26.684C229.117 320.192 198.204 330 165 330c-25.813 0-50.24-5.927-71.998-16.495zm323.996 0C472.05 286.765 510 230.315 510 165 510 73.873 436.127 0 345 0c-33.204 0-64.117 9.808-90 26.684 45.153 29.44 75 80.393 75 138.316 0 10.77-1.032 21.3-3.002 31.495 45.974 22.33 80.02 65.38 90 117.01z"/><path fill="#3AF" d="M93.002 313.505C37.95 286.765 0 230.315 0 165 0 73.873 73.873 0 165 0c33.204 0 64.117 9.808 90 26.684-45.153 29.44-75 80.393-75 138.316 0 10.77 1.032 21.3 3.002 31.495-45.974 22.33-80.02 65.38-90 117.01z"/><path fill="#0080FF" d="M183.002 196.495A165.85 165.85 0 0 1 180 165c0-57.923 29.847-108.876 75-138.316 45.153 29.44 75 80.393 75 138.316 0 10.77-1.032 21.3-3.002 31.495C305.24 185.927 280.813 180 255 180c-25.813 0-50.24 5.927-71.998 16.495zM255 303.316C280.883 320.192 311.796 330 345 330c25.813 0 50.24-5.927 71.998-16.495-9.98-51.63-44.026-94.68-90-117.01-8.627 44.633-35.24 82.855-71.998 106.821zm0 0C229.117 320.192 198.204 330 165 330c-25.813 0-50.24-5.927-71.998-16.495 9.98-51.63 44.026-94.68 90-117.01 8.627 44.633 35.24 82.855 71.998 106.821z"/><path fill="#0059B3" d="M183.002 196.495c8.627 44.633 35.24 82.855 71.998 106.821 36.757-23.966 63.371-62.188 71.998-106.821C305.24 185.927 280.813 180 255 180c-25.813 0-50.24 5.927-71.998 16.495z"/><path fill="#F5FBFF" d="M121.244 40.904c0 .97.224 1.667.672 2.088.448.421 1.072.632 1.872.632s1.427-.21 1.88-.632c.453-.421.68-1.117.68-2.088V34.44h1.76v6.848a4.32 4.32 0 0 1-.256 1.488c-.17.47-.435.883-.792 1.24-.357.357-.816.64-1.376.848-.56.208-1.224.312-1.992.312s-1.424-.104-1.968-.312c-.544-.208-.99-.49-1.336-.848a3.196 3.196 0 0 1-.752-1.24 4.724 4.724 0 0 1-.232-1.488V34.44h1.84v6.464zm13.896-3.92c0 .224.05.416.152.576.101.16.243.299.424.416.181.117.397.227.648.328.25.101.53.205.84.312.384.139.765.296 1.144.472.379.176.72.395 1.024.656.304.261.552.584.744.968.192.384.288.848.288 1.392 0 .576-.104 1.061-.312 1.456a2.594 2.594 0 0 1-.84.952c-.352.24-.757.413-1.216.52-.459.107-.933.16-1.424.16a7.345 7.345 0 0 1-1.976-.256 7.135 7.135 0 0 1-1.576-.624l.48-1.728c.405.31.856.565 1.352.768.496.203 1.064.304 1.704.304.683 0 1.179-.12 1.488-.36.31-.24.464-.563.464-.968 0-.31-.075-.573-.224-.792a2.15 2.15 0 0 0-.56-.56 3.371 3.371 0 0 0-.712-.376c-.25-.096-.472-.176-.664-.24a11.28 11.28 0 0 1-1.04-.384 4.12 4.12 0 0 1-.976-.584 2.765 2.765 0 0 1-.728-.904c-.187-.363-.28-.816-.28-1.36 0-.512.088-.944.264-1.296.176-.352.416-.637.72-.856a2.972 2.972 0 0 1 1.072-.472 5.86 5.86 0 0 1 1.336-.144c.587 0 1.155.059 1.704.176.55.117 1.01.261 1.384.432l-.432 1.696a3.87 3.87 0 0 0-.624-.336 5.1 5.1 0 0 0-.696-.24 6.923 6.923 0 0 0-.72-.152 4.433 4.433 0 0 0-.68-.056c-.48 0-.859.09-1.136.272-.277.181-.416.459-.416.832zm15.368 3.216h-3.2v3.2h4.592V45h-6.432V34.44h6.112v1.6h-4.272v2.56h3.2v1.6zm9.016.288h-.36a4.96 4.96 0 0 1-.392-.016V45h-1.84V34.44l.584-.032c.219-.01.44-.019.664-.024.224-.005.435-.01.632-.016.197-.005.355-.008.472-.008 1.365 0 2.405.259 3.12.776.715.517 1.072 1.272 1.072 2.264 0 .63-.155 1.195-.464 1.696-.31.501-.827.875-1.552 1.12L165.332 45h-2.128l-3.68-4.512zm-.08-4.592h-.304c-.117 0-.24.005-.368.016v3.04h.992c.576 0 1.013-.144 1.312-.432.299-.288.448-.699.448-1.232 0-.48-.147-.832-.44-1.056-.293-.224-.84-.336-1.64-.336zm11.528 1.088c0 .224.05.416.152.576.101.16.243.299.424.416.181.117.397.227.648.328.25.101.53.205.84.312.384.139.765.296 1.144.472.379.176.72.395 1.024.656.304.261.552.584.744.968.192.384.288.848.288 1.392 0 .576-.104 1.061-.312 1.456a2.594 2.594 0 0 1-.84.952c-.352.24-.757.413-1.216.52-.459.107-.933.16-1.424.16a7.345 7.345 0 0 1-1.976-.256 7.135 7.135 0 0 1-1.576-.624l.48-1.728c.405.31.856.565 1.352.768.496.203 1.064.304 1.704.304.683 0 1.179-.12 1.488-.36.31-.24.464-.563.464-.968 0-.31-.075-.573-.224-.792a2.15 2.15 0 0 0-.56-.56 3.371 3.371 0 0 0-.712-.376c-.25-.096-.472-.176-.664-.24a11.28 11.28 0 0 1-1.04-.384 4.12 4.12 0 0 1-.976-.584 2.765 2.765 0 0 1-.728-.904c-.187-.363-.28-.816-.28-1.36 0-.512.088-.944.264-1.296.176-.352.416-.637.72-.856a2.972 2.972 0 0 1 1.072-.472 5.86 5.86 0 0 1 1.336-.144c.587 0 1.155.059 1.704.176.55.117 1.01.261 1.384.432l-.432 1.696a3.87 3.87 0 0 0-.624-.336 5.1 5.1 0 0 0-.696-.24 6.923 6.923 0 0 0-.72-.152 4.433 4.433 0 0 0-.68-.056c-.48 0-.859.09-1.136.272-.277.181-.416.459-.416.832zM199.232 351h-2l-1.2-3.072h-3.984L190.96 351h-1.92l4.096-10.56h1.584l4.512 10.56zm-6.672-4.512h2.896l-1.52-3.888-1.376 3.888zm10.904-6.048c.139-.01.357-.021.656-.032.299-.01.613-.019.944-.024l.952-.016c.304-.005.541-.008.712-.008 1.035 0 1.885.107 2.552.32.667.213 1.219.507 1.656.88.565.49.976 1.115 1.232 1.872.256.757.384 1.595.384 2.512a7.42 7.42 0 0 1-.264 1.992 3.93 3.93 0 0 1-.944 1.672c-.453.48-1.077.861-1.872 1.144-.795.283-1.81.424-3.048.424-.448 0-.928-.016-1.44-.048a35.013 35.013 0 0 1-1.52-.128v-10.56zm3.408 9.216c1.29 0 2.232-.31 2.824-.928.592-.619.888-1.627.888-3.024 0-.63-.061-1.181-.184-1.656a2.702 2.702 0 0 0-.632-1.192c-.299-.32-.699-.56-1.2-.72-.501-.16-1.125-.24-1.872-.24h-.6a20 20 0 0 0-.792.016v7.68a26.36 26.36 0 0 0 1.568.064zm9.16-9.216h2l3.36 8.32 3.04-8.32h1.92L222.128 351h-1.456l-4.64-10.56zm19.784 5.76h-3.2v3.2h4.592v1.6h-6.432v-10.56h6.112v1.6h-4.272v2.56h3.2v1.6zm9.016.288h-.36a4.96 4.96 0 0 1-.392-.016V351h-1.84v-10.56l.584-.032c.219-.01.44-.019.664-.024.224-.005.435-.01.632-.016.197-.005.355-.008.472-.008 1.365 0 2.405.259 3.12.776.715.517 1.072 1.272 1.072 2.264 0 .63-.155 1.195-.464 1.696-.31.501-.827.875-1.552 1.12L250.64 351h-2.128l-3.68-4.512zm-.08-4.592h-.304c-.117 0-.24.005-.368.016v3.04h.992c.576 0 1.013-.144 1.312-.432.299-.288.448-.699.448-1.232 0-.48-.147-.832-.44-1.056-.293-.224-.84-.336-1.64-.336zm16.744.144h-3.056V351h-1.84v-8.96h-3.056v-1.6h7.952v1.6zm6.584 8.96h-1.84v-10.56h1.84V351zm7.16-8.016c0 .224.05.416.152.576.101.16.243.299.424.416.181.117.397.227.648.328.25.101.53.205.84.312.384.139.765.296 1.144.472.379.176.72.395 1.024.656.304.261.552.584.744.968.192.384.288.848.288 1.392 0 .576-.104 1.061-.312 1.456a2.594 2.594 0 0 1-.84.952c-.352.24-.757.413-1.216.52-.459.107-.933.16-1.424.16a7.345 7.345 0 0 1-1.976-.256 7.135 7.135 0 0 1-1.576-.624l.48-1.728c.405.31.856.565 1.352.768.496.203 1.064.304 1.704.304.683 0 1.179-.12 1.488-.36.31-.24.464-.563.464-.968 0-.31-.075-.573-.224-.792a2.15 2.15 0 0 0-.56-.56 3.371 3.371 0 0 0-.712-.376c-.25-.096-.472-.176-.664-.24a11.28 11.28 0 0 1-1.04-.384 4.12 4.12 0 0 1-.976-.584 2.765 2.765 0 0 1-.728-.904c-.187-.363-.28-.816-.28-1.36 0-.512.088-.944.264-1.296.176-.352.416-.637.72-.856a2.972 2.972 0 0 1 1.072-.472 5.86 5.86 0 0 1 1.336-.144c.587 0 1.155.059 1.704.176.55.117 1.01.261 1.384.432l-.432 1.696a3.87 3.87 0 0 0-.624-.336 5.1 5.1 0 0 0-.696-.24 6.923 6.923 0 0 0-.72-.152 4.433 4.433 0 0 0-.68-.056c-.48 0-.859.09-1.136.272-.277.181-.416.459-.416.832zm15.368 3.216h-3.2v3.2H292v1.6h-6.432v-10.56h6.112v1.6h-4.272v2.56h3.2v1.6zm9.016.288h-.36a4.96 4.96 0 0 1-.392-.016V351h-1.84v-10.56l.584-.032c.219-.01.44-.019.664-.024.224-.005.435-.01.632-.016.197-.005.355-.008.472-.008 1.365 0 2.405.259 3.12.776.715.517 1.072 1.272 1.072 2.264 0 .63-.155 1.195-.464 1.696-.31.501-.827.875-1.552 1.12l3.872 4.784h-2.128l-3.68-4.512zm-.08-4.592h-.304c-.117 0-.24.005-.368.016v3.04h.992c.576 0 1.013-.144 1.312-.432.299-.288.448-.699.448-1.232 0-.48-.147-.832-.44-1.056-.293-.224-.84-.336-1.64-.336zm11.528 1.088c0 .224.05.416.152.576.101.16.243.299.424.416.181.117.397.227.648.328.25.101.53.205.84.312.384.139.765.296 1.144.472.379.176.72.395 1.024.656.304.261.552.584.744.968.192.384.288.848.288 1.392 0 .576-.104 1.061-.312 1.456a2.594 2.594 0 0 1-.84.952c-.352.24-.757.413-1.216.52-.459.107-.933.16-1.424.16a7.345 7.345 0 0 1-1.976-.256 7.135 7.135 0 0 1-1.576-.624l.48-1.728c.405.31.856.565 1.352.768.496.203 1.064.304 1.704.304.683 0 1.179-.12 1.488-.36.31-.24.464-.563.464-.968 0-.31-.075-.573-.224-.792a2.15 2.15 0 0 0-.56-.56 3.371 3.371 0 0 0-.712-.376c-.25-.096-.472-.176-.664-.24a11.28 11.28 0 0 1-1.04-.384 4.12 4.12 0 0 1-.976-.584 2.765 2.765 0 0 1-.728-.904c-.187-.363-.28-.816-.28-1.36 0-.512.088-.944.264-1.296.176-.352.416-.637.72-.856a2.972 2.972 0 0 1 1.072-.472 5.86 5.86 0 0 1 1.336-.144c.587 0 1.155.059 1.704.176.55.117 1.01.261 1.384.432l-.432 1.696a3.87 3.87 0 0 0-.624-.336 5.1 5.1 0 0 0-.696-.24 6.923 6.923 0 0 0-.72-.152 4.433 4.433 0 0 0-.68-.056c-.48 0-.859.09-1.136.272-.277.181-.416.459-.416.832zm-1.564-301.952h-.536c-.176 0-.344-.005-.504-.016V45h-1.84V34.44a23.497 23.497 0 0 1 1.208-.056l.688-.016c.23-.005.445-.008.648-.008.597 0 1.141.072 1.632.216.49.144.912.36 1.264.648.352.288.624.643.816 1.064.192.421.288.91.288 1.464 0 .448-.075.87-.224 1.264-.15.395-.373.741-.672 1.04a3.19 3.19 0 0 1-1.144.712c-.464.176-1.005.264-1.624.264zm-.08-5.136h-.496c-.16 0-.315.005-.464.016v3.568c.15.01.307.016.472.016h.52c.576 0 1.01-.16 1.304-.48.293-.32.44-.784.44-1.392 0-.512-.13-.928-.392-1.248-.261-.32-.723-.48-1.384-.48zm10.424 5.008c0 .97.224 1.667.672 2.088.448.421 1.072.632 1.872.632s1.427-.21 1.88-.632c.453-.421.68-1.117.68-2.088V34.44h1.76v6.848a4.32 4.32 0 0 1-.256 1.488c-.17.47-.435.883-.792 1.24-.357.357-.816.64-1.376.848-.56.208-1.224.312-1.992.312s-1.424-.104-1.968-.312c-.544-.208-.99-.49-1.336-.848a3.196 3.196 0 0 1-.752-1.24 4.724 4.724 0 0 1-.232-1.488V34.44h1.84v6.464zm18.632-3.792c0 .427-.088.813-.264 1.16-.176.347-.45.643-.824.888.64.213 1.141.55 1.504 1.008.363.459.544 1.04.544 1.744 0 .448-.08.87-.24 1.264a2.81 2.81 0 0 1-.736 1.04c-.33.299-.741.536-1.232.712-.49.176-1.067.264-1.728.264-.587 0-1.157-.019-1.712-.056a19.259 19.259 0 0 1-1.392-.136V34.44c.117-.01.283-.019.496-.024.213-.005.443-.013.688-.024a33.911 33.911 0 0 1 1.392-.032c1.13 0 1.997.232 2.6.696.603.464.904 1.15.904 2.056zm-3.056 2.912a23.11 23.11 0 0 0-1.184.032v3.568c.192.021.39.032.592.032h.624c.65 0 1.157-.16 1.52-.48.363-.32.544-.784.544-1.392 0-.544-.165-.973-.496-1.288-.33-.315-.864-.472-1.6-.472zm-.144-4.16c-.213 0-.403.008-.568.024-.165.016-.323.035-.472.056v2.736c.128.01.259.016.392.016h.408c.47 0 .837-.157 1.104-.472.267-.315.4-.728.4-1.24 0-.32-.11-.587-.328-.8-.219-.213-.53-.32-.936-.32zm11.08 7.536h4.4V45h-6.24V34.44h1.84v8.96zm10.952 1.6h-1.84V34.44h1.84V45zm7.16-8.016c0 .224.05.416.152.576.101.16.243.299.424.416.181.117.397.227.648.328.25.101.53.205.84.312.384.139.765.296 1.144.472.379.176.72.395 1.024.656.304.261.552.584.744.968.192.384.288.848.288 1.392 0 .576-.104 1.061-.312 1.456a2.594 2.594 0 0 1-.84.952c-.352.24-.757.413-1.216.52-.459.107-.933.16-1.424.16a7.345 7.345 0 0 1-1.976-.256 7.135 7.135 0 0 1-1.576-.624l.48-1.728c.405.31.856.565 1.352.768.496.203 1.064.304 1.704.304.683 0 1.179-.12 1.488-.36.31-.24.464-.563.464-.968 0-.31-.075-.573-.224-.792a2.15 2.15 0 0 0-.56-.56 3.371 3.371 0 0 0-.712-.376c-.25-.096-.472-.176-.664-.24a11.28 11.28 0 0 1-1.04-.384 4.12 4.12 0 0 1-.976-.584 2.765 2.765 0 0 1-.728-.904c-.187-.363-.28-.816-.28-1.36 0-.512.088-.944.264-1.296.176-.352.416-.637.72-.856a2.972 2.972 0 0 1 1.072-.472 5.86 5.86 0 0 1 1.336-.144c.587 0 1.155.059 1.704.176.55.117 1.01.261 1.384.432l-.432 1.696a3.87 3.87 0 0 0-.624-.336 5.1 5.1 0 0 0-.696-.24 6.923 6.923 0 0 0-.72-.152 4.433 4.433 0 0 0-.68-.056c-.48 0-.859.09-1.136.272-.277.181-.416.459-.416.832zM383.54 45h-1.84v-4.64h-5.056V45h-1.84V34.44h1.84v4.32h5.056v-4.32h1.84V45zm10.856-4.8h-3.2v3.2h4.592V45h-6.432V34.44h6.112v1.6h-4.272v2.56h3.2v1.6zm9.016.288h-.36a4.96 4.96 0 0 1-.392-.016V45h-1.84V34.44l.584-.032c.219-.01.44-.019.664-.024.224-.005.435-.01.632-.016.197-.005.355-.008.472-.008 1.365 0 2.405.259 3.12.776.715.517 1.072 1.272 1.072 2.264 0 .63-.155 1.195-.464 1.696-.31.501-.827.875-1.552 1.12L409.22 45h-2.128l-3.68-4.512zm-.08-4.592h-.304c-.117 0-.24.005-.368.016v3.04h.992c.576 0 1.013-.144 1.312-.432.299-.288.448-.699.448-1.232 0-.48-.147-.832-.44-1.056-.293-.224-.84-.336-1.64-.336zm11.528 1.088c0 .224.05.416.152.576.101.16.243.299.424.416.181.117.397.227.648.328.25.101.53.205.84.312.384.139.765.296 1.144.472.379.176.72.395 1.024.656.304.261.552.584.744.968.192.384.288.848.288 1.392 0 .576-.104 1.061-.312 1.456a2.594 2.594 0 0 1-.84.952c-.352.24-.757.413-1.216.52-.459.107-.933.16-1.424.16a7.345 7.345 0 0 1-1.976-.256 7.135 7.135 0 0 1-1.576-.624l.48-1.728c.405.31.856.565 1.352.768.496.203 1.064.304 1.704.304.683 0 1.179-.12 1.488-.36.31-.24.464-.563.464-.968 0-.31-.075-.573-.224-.792a2.15 2.15 0 0 0-.56-.56 3.371 3.371 0 0 0-.712-.376c-.25-.096-.472-.176-.664-.24a11.28 11.28 0 0 1-1.04-.384 4.12 4.12 0 0 1-.976-.584 2.765 2.765 0 0 1-.728-.904c-.187-.363-.28-.816-.28-1.36 0-.512.088-.944.264-1.296.176-.352.416-.637.72-.856a2.972 2.972 0 0 1 1.072-.472 5.86 5.86 0 0 1 1.336-.144c.587 0 1.155.059 1.704.176.55.117 1.01.261 1.384.432l-.432 1.696a3.87 3.87 0 0 0-.624-.336 5.1 5.1 0 0 0-.696-.24 6.923 6.923 0 0 0-.72-.152 4.433 4.433 0 0 0-.68-.056c-.48 0-.859.09-1.136.272-.277.181-.416.459-.416.832zM215.58 207.712a4.403 4.403 0 0 0-1.224-.568 5.596 5.596 0 0 0-1.624-.216c-.576 0-1.07.09-1.48.272a2.53 2.53 0 0 0-1 .768 3.3 3.3 0 0 0-.568 1.192 6.038 6.038 0 0 0-.184 1.544c0 1.29.275 2.267.824 2.928.55.661 1.341.992 2.376.992.64 0 1.224-.096 1.752-.288.528-.192.963-.427 1.304-.704l.48 1.584a7.608 7.608 0 0 1-1.544.68c-.603.197-1.283.296-2.04.296-.875 0-1.632-.144-2.272-.432a4.492 4.492 0 0 1-1.592-1.168 4.784 4.784 0 0 1-.936-1.704 6.823 6.823 0 0 1-.304-2.056c0-.757.112-1.467.336-2.128a4.969 4.969 0 0 1 1-1.736 4.713 4.713 0 0 1 1.648-1.176c.656-.288 1.421-.432 2.296-.432.576 0 1.152.061 1.728.184.576.123 1.072.29 1.488.504l-.464 1.664zm5.312.688c.939 0 1.664.237 2.176.712.512.475.768 1.144.768 2.008 0 .117-.008.243-.024.376a4.62 4.62 0 0 1-.064.392 2.435 2.435 0 0 1-.096.344 1.197 1.197 0 0 1-.12.248h-4.656c.021.32.08.621.176.904.096.283.235.528.416.736.181.208.403.373.664.496s.568.184.92.184c.395 0 .813-.075 1.256-.224.443-.15.819-.336 1.128-.56l.288 1.312c-.139.085-.31.179-.512.28a5.263 5.263 0 0 1-.688.28c-.256.085-.53.157-.824.216-.293.059-.6.088-.92.088-.597 0-1.125-.104-1.584-.312a3.305 3.305 0 0 1-1.152-.848 3.694 3.694 0 0 1-.704-1.24 4.53 4.53 0 0 1-.24-1.472c0-.523.083-1.021.248-1.496.165-.475.408-.893.728-1.256s.717-.648 1.192-.856c.475-.208 1.016-.312 1.624-.312zm-.048 1.376c-.448 0-.83.13-1.144.392-.315.261-.541.616-.68 1.064h3.056a.586.586 0 0 0 .024-.112c.005-.043.008-.096.008-.16 0-.341-.117-.624-.352-.848-.235-.224-.539-.336-.912-.336zm9.552 6.224v-4.864c0-.875-.373-1.312-1.12-1.312-.181 0-.376.032-.584.096a2.45 2.45 0 0 0-.6.28 2.333 2.333 0 0 0-.52.456c-.155.181-.27.39-.344.624V216h-1.76v-7.36h1.376l.08 1.088h.064a2.127 2.127 0 0 1 1.048-1 3.608 3.608 0 0 1 1.528-.328c.352 0 .683.045.992.136.31.09.584.237.824.44s.43.47.568.8c.139.33.208.736.208 1.216V216h-1.76zm4-6.288h-.912v-.96l1.04-.16.288-2.176h1.344v2.224h1.408v1.072h-1.408v4.224c0 .32.032.536.096.648.064.112.187.168.368.168.139 0 .277-.027.416-.08.139-.053.341-.155.608-.304l.288 1.264c-.203.17-.488.307-.856.408a4.114 4.114 0 0 1-1.096.152c-.32 0-.584-.043-.792-.128a1.087 1.087 0 0 1-.488-.376 1.48 1.48 0 0 1-.24-.6 4.4 4.4 0 0 1-.064-.784v-4.592zm9.024.528c-.107-.085-.272-.155-.496-.208a2.548 2.548 0 0 0-.576-.08c-.213 0-.39.05-.528.152a1.483 1.483 0 0 0-.368.4 2.672 2.672 0 0 0-.272.568 11.79 11.79 0 0 0-.208.656V216h-1.76v-7.36h1.376l.08 1.536h.064c.107-.224.219-.443.336-.656.117-.213.25-.403.4-.568.15-.165.323-.299.52-.4a1.51 1.51 0 0 1 .696-.152c.427 0 .827.139 1.2.416l-.464 1.424zm6.016 5.76l-.128-1.008h-.064c-.288.363-.68.653-1.176.872a3.71 3.71 0 0 1-1.512.328c-.672 0-1.2-.195-1.584-.584-.384-.39-.576-.904-.576-1.544 0-.437.093-.83.28-1.176.187-.347.456-.64.808-.88.352-.24.773-.424 1.264-.552a6.533 6.533 0 0 1 1.648-.192h.688v-.24c0-.416-.133-.72-.4-.912-.277-.192-.71-.288-1.296-.288-.79 0-1.493.176-2.112.528l-.336-1.328c.715-.416 1.579-.624 2.592-.624 1.067 0 1.877.219 2.432.656.256.203.467.464.632.784.165.32.248.704.248 1.152V216h-1.408zm-2.192-1.232c.341 0 .683-.083 1.024-.248.341-.165.613-.387.816-.664V212.4h-.304c-.875 0-1.512.112-1.912.336-.4.224-.6.581-.6 1.072 0 .64.325.96.976.96zm7.424 1.232h-1.76v-11.84h1.76V216zm3.904 0h-1.76v-7.36h1.76V216zm-2.016-9.728c0-.15.03-.293.088-.432.059-.139.141-.264.248-.376.107-.112.227-.2.36-.264.133-.064.28-.096.44-.096.15 0 .293.032.432.096s.264.152.376.264c.112.112.2.237.264.376s.096.283.096.432c0 .16-.032.307-.096.44a1.23 1.23 0 0 1-.264.36c-.112.107-.237.19-.376.248a1.098 1.098 0 0 1-.432.088c-.31 0-.576-.112-.8-.336a1.092 1.092 0 0 1-.336-.8zm6.304 3.44c-.352 0-.627.067-.824.2a.646.646 0 0 0-.296.568c0 .16.056.307.168.44.112.133.35.243.712.328l1.136.256c.448.096.808.235 1.08.416s.485.379.64.592c.155.213.259.432.312.656.053.224.08.432.08.624a2.2 2.2 0 0 1-.8 1.712 2.868 2.868 0 0 1-.928.504 3.78 3.78 0 0 1-1.216.184 4.785 4.785 0 0 1-1.568-.248c-.48-.165-.864-.35-1.152-.552l.416-1.52c.363.352.77.613 1.224.784.453.17.872.256 1.256.256.405 0 .715-.088.928-.264.213-.176.32-.419.32-.728a.67.67 0 0 0-.16-.456c-.107-.123-.32-.227-.64-.312l-1.536-.384c-.363-.085-.659-.208-.888-.368-.23-.16-.41-.339-.544-.536a1.803 1.803 0 0 1-.272-.616 2.772 2.772 0 0 1-.072-.608c0-.715.25-1.267.752-1.656.501-.39 1.152-.584 1.952-.584.416 0 .864.056 1.344.168.48.112.885.275 1.216.488l-.464 1.44c-.213-.17-.512-.344-.896-.52a3.036 3.036 0 0 0-1.28-.264zm9.008 6.288l-.128-1.008h-.064c-.288.363-.68.653-1.176.872a3.71 3.71 0 0 1-1.512.328c-.672 0-1.2-.195-1.584-.584-.384-.39-.576-.904-.576-1.544 0-.437.093-.83.28-1.176.187-.347.456-.64.808-.88.352-.24.773-.424 1.264-.552a6.533 6.533 0 0 1 1.648-.192h.688v-.24c0-.416-.133-.72-.4-.912-.277-.192-.71-.288-1.296-.288-.79 0-1.493.176-2.112.528l-.336-1.328c.715-.416 1.579-.624 2.592-.624 1.067 0 1.877.219 2.432.656.256.203.467.464.632.784.165.32.248.704.248 1.152V216h-1.408zm-2.192-1.232c.341 0 .683-.083 1.024-.248.341-.165.613-.387.816-.664V212.4h-.304c-.875 0-1.512.112-1.912.336-.4.224-.6.581-.6 1.072 0 .64.325.96.976.96zm5.84-5.056h-.912v-.96l1.04-.16.288-2.176h1.344v2.224h1.408v1.072h-1.408v4.224c0 .32.032.536.096.648.064.112.187.168.368.168.139 0 .277-.027.416-.08.139-.053.341-.155.608-.304l.288 1.264c-.203.17-.488.307-.856.408a4.114 4.114 0 0 1-1.096.152c-.32 0-.584-.043-.792-.128a1.087 1.087 0 0 1-.488-.376 1.48 1.48 0 0 1-.24-.6 4.4 4.4 0 0 1-.064-.784v-4.592zm6.576 6.288h-1.76v-7.36h1.76V216zm-2.016-9.728c0-.15.03-.293.088-.432.059-.139.141-.264.248-.376.107-.112.227-.2.36-.264.133-.064.28-.096.44-.096.15 0 .293.032.432.096s.264.152.376.264c.112.112.2.237.264.376s.096.283.096.432c0 .16-.032.307-.096.44a1.23 1.23 0 0 1-.264.36c-.112.107-.237.19-.376.248a1.098 1.098 0 0 1-.432.088c-.31 0-.576-.112-.8-.336a1.092 1.092 0 0 1-.336-.8zm7.344 2.128c.65 0 1.21.11 1.68.328.47.219.856.512 1.16.88.304.368.528.79.672 1.264.144.475.216.973.216 1.496s-.072 1.016-.216 1.48a3.3 3.3 0 0 1-.672 1.216 3.219 3.219 0 0 1-1.152.824c-.464.203-1.01.304-1.64.304-.65 0-1.21-.107-1.68-.32a3.355 3.355 0 0 1-1.168-.856 3.487 3.487 0 0 1-.688-1.24 4.879 4.879 0 0 1-.224-1.488c0-.523.075-1.019.224-1.488.15-.47.376-.883.68-1.24.304-.357.69-.64 1.16-.848.47-.208 1.019-.312 1.648-.312zm.032 6.464c.31 0 .579-.067.808-.2.23-.133.419-.315.568-.544.15-.23.259-.493.328-.792.07-.299.104-.613.104-.944 0-.341-.037-.67-.112-.984a2.654 2.654 0 0 0-.344-.832 1.824 1.824 0 0 0-.584-.576 1.59 1.59 0 0 0-.848-.216c-.31 0-.576.067-.8.2a1.656 1.656 0 0 0-.552.536 2.47 2.47 0 0 0-.32.784 4.56 4.56 0 0 0 0 1.928c.07.315.181.595.336.84.155.245.35.44.584.584.235.144.512.216.832.216zm10.24 1.136v-4.864c0-.875-.373-1.312-1.12-1.312-.181 0-.376.032-.584.096a2.45 2.45 0 0 0-.6.28 2.333 2.333 0 0 0-.52.456c-.155.181-.27.39-.344.624V216h-1.76v-7.36h1.376l.08 1.088h.064a2.127 2.127 0 0 1 1.048-1 3.608 3.608 0 0 1 1.528-.328c.352 0 .683.045.992.136.31.09.584.237.824.44s.43.47.568.8c.139.33.208.736.208 1.216V216h-1.76zm-74.248 20h-1.76v-7.36h1.76V236zm-2.016-9.728c0-.15.03-.293.088-.432.059-.139.141-.264.248-.376.107-.112.227-.2.36-.264.133-.064.28-.096.44-.096.15 0 .293.032.432.096s.264.152.376.264c.112.112.2.237.264.376s.096.283.096.432c0 .16-.032.307-.096.44a1.23 1.23 0 0 1-.264.36c-.112.107-.237.19-.376.248a1.098 1.098 0 0 1-.432.088c-.31 0-.576-.112-.8-.336a1.092 1.092 0 0 1-.336-.8zM230.42 236v-4.864c0-.875-.373-1.312-1.12-1.312-.181 0-.376.032-.584.096a2.45 2.45 0 0 0-.6.28 2.333 2.333 0 0 0-.52.456c-.155.181-.27.39-.344.624V236h-1.76v-7.36h1.376l.08 1.088h.064a2.127 2.127 0 0 1 1.048-1 3.608 3.608 0 0 1 1.528-.328c.352 0 .683.045.992.136.31.09.584.237.824.44s.43.47.568.8c.139.33.208.736.208 1.216V236h-1.76zm16.048 0h-2l-1.2-3.072h-3.984L238.196 236h-1.92l4.096-10.56h1.584l4.512 10.56zm-6.672-4.512h2.896l-1.52-3.888-1.376 3.888zm10.272 4.704a3.1 3.1 0 0 1-1.376-.304 3.184 3.184 0 0 1-1.064-.832 3.807 3.807 0 0 1-.68-1.248 4.931 4.931 0 0 1-.24-1.568c0-.501.067-.984.2-1.448a3.53 3.53 0 0 1 .616-1.224 3.137 3.137 0 0 1 1.032-.848c.41-.213.899-.32 1.464-.32.512 0 .97.085 1.376.256.405.17.73.41.976.72v-5.216h1.744V236h-1.408l-.128-1.008h-.064c-.299.33-.637.613-1.016.848s-.856.352-1.432.352zm.224-1.328c.17 0 .352-.024.544-.072a3.275 3.275 0 0 0 1.104-.512 1.92 1.92 0 0 0 .432-.424v-3.072c-.32-.395-.645-.664-.976-.808a2.398 2.398 0 0 0-.96-.216c-.341 0-.635.067-.88.2s-.45.317-.616.552a2.488 2.488 0 0 0-.368.808c-.08.304-.12.621-.12.952 0 .32.037.637.112.952.075.315.187.592.336.832.15.24.341.435.576.584.235.15.507.224.816.224zm13.056-7.824h-3.056V236h-1.84v-8.96h-3.056v-1.6h7.952v1.6zm3.264 1.36c.939 0 1.664.237 2.176.712.512.475.768 1.144.768 2.008 0 .117-.008.243-.024.376a4.62 4.62 0 0 1-.064.392 2.435 2.435 0 0 1-.096.344 1.197 1.197 0 0 1-.12.248h-4.656c.021.32.08.621.176.904.096.283.235.528.416.736.181.208.403.373.664.496s.568.184.92.184c.395 0 .813-.075 1.256-.224.443-.15.819-.336 1.128-.56l.288 1.312c-.139.085-.31.179-.512.28a5.263 5.263 0 0 1-.688.28c-.256.085-.53.157-.824.216-.293.059-.6.088-.92.088-.597 0-1.125-.104-1.584-.312a3.305 3.305 0 0 1-1.152-.848 3.694 3.694 0 0 1-.704-1.24 4.53 4.53 0 0 1-.24-1.472c0-.523.083-1.021.248-1.496.165-.475.408-.893.728-1.256s.717-.648 1.192-.856c.475-.208 1.016-.312 1.624-.312zm-.048 1.376c-.448 0-.83.13-1.144.392-.315.261-.541.616-.68 1.064h3.056a.586.586 0 0 0 .024-.112c.005-.043.008-.096.008-.16 0-.341-.117-.624-.352-.848-.235-.224-.539-.336-.912-.336zm10.304.688a2.917 2.917 0 0 0-.44-.256 4.198 4.198 0 0 0-.568-.224 4.752 4.752 0 0 0-.632-.152 3.67 3.67 0 0 0-.616-.056c-.363 0-.67.067-.92.2a1.72 1.72 0 0 0-.608.528 2.188 2.188 0 0 0-.336.76c-.07.288-.104.587-.104.896 0 .363.043.701.128 1.016.085.315.213.59.384.824.17.235.387.421.648.56a1.9 1.9 0 0 0 .904.208c.384 0 .792-.077 1.224-.232a2.98 2.98 0 0 0 1.08-.648l.32 1.504c-.299.192-.707.373-1.224.544-.517.17-1.07.256-1.656.256-.619 0-1.16-.107-1.624-.32a3.292 3.292 0 0 1-1.152-.856 3.646 3.646 0 0 1-.688-1.248 4.85 4.85 0 0 1-.232-1.512c0-.512.072-1 .216-1.464a3.4 3.4 0 0 1 .68-1.232 3.25 3.25 0 0 1 1.184-.848c.48-.208 1.056-.312 1.728-.312.512 0 1.013.059 1.504.176.49.117.885.272 1.184.464l-.384 1.424zm3.744-.736c.299-.47.648-.808 1.048-1.016.4-.208.872-.312 1.416-.312.32 0 .63.045.928.136.299.09.563.237.792.44.23.203.41.47.544.8.133.33.2.736.2 1.216V236h-1.76v-4.864c0-.437-.096-.765-.288-.984-.192-.219-.453-.328-.784-.328-.203 0-.413.032-.632.096-.219.064-.424.16-.616.288a2.347 2.347 0 0 0-.512.464c-.15.181-.261.384-.336.608V236h-1.76v-11.84h1.76v5.568zM221.924 248.4c.939 0 1.664.237 2.176.712.512.475.768 1.144.768 2.008 0 .117-.008.243-.024.376a4.62 4.62 0 0 1-.064.392 2.435 2.435 0 0 1-.096.344 1.197 1.197 0 0 1-.12.248h-4.656c.021.32.08.621.176.904.096.283.235.528.416.736.181.208.403.373.664.496s.568.184.92.184c.395 0 .813-.075 1.256-.224.443-.15.819-.336 1.128-.56l.288 1.312c-.139.085-.31.179-.512.28a5.263 5.263 0 0 1-.688.28c-.256.085-.53.157-.824.216-.293.059-.6.088-.92.088-.597 0-1.125-.104-1.584-.312a3.305 3.305 0 0 1-1.152-.848 3.694 3.694 0 0 1-.704-1.24 4.53 4.53 0 0 1-.24-1.472c0-.523.083-1.021.248-1.496.165-.475.408-.893.728-1.256s.717-.648 1.192-.856c.475-.208 1.016-.312 1.624-.312zm-.048 1.376c-.448 0-.83.13-1.144.392-.315.261-.541.616-.68 1.064h3.056a.586.586 0 0 0 .024-.112c.005-.043.008-.096.008-.16 0-.341-.117-.624-.352-.848-.235-.224-.539-.336-.912-.336zm10.304.688a2.917 2.917 0 0 0-.44-.256 4.198 4.198 0 0 0-.568-.224 4.752 4.752 0 0 0-.632-.152 3.67 3.67 0 0 0-.616-.056c-.363 0-.67.067-.92.2a1.72 1.72 0 0 0-.608.528 2.188 2.188 0 0 0-.336.76c-.07.288-.104.587-.104.896 0 .363.043.701.128 1.016.085.315.213.59.384.824.17.235.387.421.648.56a1.9 1.9 0 0 0 .904.208c.384 0 .792-.077 1.224-.232a2.98 2.98 0 0 0 1.08-.648l.32 1.504c-.299.192-.707.373-1.224.544-.517.17-1.07.256-1.656.256-.619 0-1.16-.107-1.624-.32a3.292 3.292 0 0 1-1.152-.856 3.646 3.646 0 0 1-.688-1.248 4.85 4.85 0 0 1-.232-1.512c0-.512.072-1 .216-1.464a3.4 3.4 0 0 1 .68-1.232 3.25 3.25 0 0 1 1.184-.848c.48-.208 1.056-.312 1.728-.312.512 0 1.013.059 1.504.176.49.117.885.272 1.184.464l-.384 1.424zm5.152-2.064c.65 0 1.21.11 1.68.328.47.219.856.512 1.16.88.304.368.528.79.672 1.264.144.475.216.973.216 1.496s-.072 1.016-.216 1.48a3.3 3.3 0 0 1-.672 1.216 3.219 3.219 0 0 1-1.152.824c-.464.203-1.01.304-1.64.304-.65 0-1.21-.107-1.68-.32a3.355 3.355 0 0 1-1.168-.856 3.487 3.487 0 0 1-.688-1.24 4.879 4.879 0 0 1-.224-1.488c0-.523.075-1.019.224-1.488.15-.47.376-.883.68-1.24.304-.357.69-.64 1.16-.848.47-.208 1.019-.312 1.648-.312zm.032 6.464c.31 0 .579-.067.808-.2.23-.133.419-.315.568-.544.15-.23.259-.493.328-.792.07-.299.104-.613.104-.944 0-.341-.037-.67-.112-.984a2.654 2.654 0 0 0-.344-.832 1.824 1.824 0 0 0-.584-.576 1.59 1.59 0 0 0-.848-.216c-.31 0-.576.067-.8.2a1.656 1.656 0 0 0-.552.536 2.47 2.47 0 0 0-.32.784 4.56 4.56 0 0 0 0 1.928c.07.315.181.595.336.84.155.245.35.44.584.584.235.144.512.216.832.216zm7.552-5.152c-.352 0-.627.067-.824.2a.646.646 0 0 0-.296.568c0 .16.056.307.168.44.112.133.35.243.712.328l1.136.256c.448.096.808.235 1.08.416s.485.379.64.592c.155.213.259.432.312.656.053.224.08.432.08.624a2.2 2.2 0 0 1-.8 1.712 2.868 2.868 0 0 1-.928.504 3.78 3.78 0 0 1-1.216.184 4.785 4.785 0 0 1-1.568-.248c-.48-.165-.864-.35-1.152-.552l.416-1.52c.363.352.77.613 1.224.784.453.17.872.256 1.256.256.405 0 .715-.088.928-.264.213-.176.32-.419.32-.728a.67.67 0 0 0-.16-.456c-.107-.123-.32-.227-.64-.312l-1.536-.384c-.363-.085-.659-.208-.888-.368-.23-.16-.41-.339-.544-.536a1.803 1.803 0 0 1-.272-.616 2.772 2.772 0 0 1-.072-.608c0-.715.25-1.267.752-1.656.501-.39 1.152-.584 1.952-.584.416 0 .864.056 1.344.168.48.112.885.275 1.216.488l-.464 1.44c-.213-.17-.512-.344-.896-.52a3.036 3.036 0 0 0-1.28-.264zm7.712 4.16l2.048-5.232h1.696l-3.04 7.424c-.15.373-.355.792-.616 1.256a7.86 7.86 0 0 1-.928 1.312c-.357.41-.76.757-1.208 1.04a2.678 2.678 0 0 1-1.648.416.592.592 0 0 1-.144-.04l-.304-1.376.112.032a2.805 2.805 0 0 0 .872-.048c.197-.043.397-.128.6-.256a3.34 3.34 0 0 0 1-1.024c.283-.437.557-.976.824-1.616l-3.664-7.12h1.84l2.56 5.232zm7.2-4.16c-.352 0-.627.067-.824.2a.646.646 0 0 0-.296.568c0 .16.056.307.168.44.112.133.35.243.712.328l1.136.256c.448.096.808.235 1.08.416s.485.379.64.592c.155.213.259.432.312.656.053.224.08.432.08.624a2.2 2.2 0 0 1-.8 1.712 2.868 2.868 0 0 1-.928.504 3.78 3.78 0 0 1-1.216.184 4.785 4.785 0 0 1-1.568-.248c-.48-.165-.864-.35-1.152-.552l.416-1.52c.363.352.77.613 1.224.784.453.17.872.256 1.256.256.405 0 .715-.088.928-.264.213-.176.32-.419.32-.728a.67.67 0 0 0-.16-.456c-.107-.123-.32-.227-.64-.312l-1.536-.384c-.363-.085-.659-.208-.888-.368-.23-.16-.41-.339-.544-.536a1.803 1.803 0 0 1-.272-.616 2.772 2.772 0 0 1-.072-.608c0-.715.25-1.267.752-1.656.501-.39 1.152-.584 1.952-.584.416 0 .864.056 1.344.168.48.112.885.275 1.216.488l-.464 1.44c-.213-.17-.512-.344-.896-.52a3.036 3.036 0 0 0-1.28-.264zm4.864 0h-.912v-.96l1.04-.16.288-2.176h1.344v2.224h1.408v1.072h-1.408v4.224c0 .32.032.536.096.648.064.112.187.168.368.168.139 0 .277-.027.416-.08.139-.053.341-.155.608-.304l.288 1.264c-.203.17-.488.307-.856.408a4.114 4.114 0 0 1-1.096.152c-.32 0-.584-.043-.792-.128a1.087 1.087 0 0 1-.488-.376 1.48 1.48 0 0 1-.24-.6 4.4 4.4 0 0 1-.064-.784v-4.592zm8.16-1.312c.939 0 1.664.237 2.176.712.512.475.768 1.144.768 2.008 0 .117-.008.243-.024.376a4.62 4.62 0 0 1-.064.392 2.435 2.435 0 0 1-.096.344 1.197 1.197 0 0 1-.12.248h-4.656c.021.32.08.621.176.904.096.283.235.528.416.736.181.208.403.373.664.496s.568.184.92.184c.395 0 .813-.075 1.256-.224.443-.15.819-.336 1.128-.56l.288 1.312c-.139.085-.31.179-.512.28a5.263 5.263 0 0 1-.688.28c-.256.085-.53.157-.824.216-.293.059-.6.088-.92.088-.597 0-1.125-.104-1.584-.312a3.305 3.305 0 0 1-1.152-.848 3.694 3.694 0 0 1-.704-1.24 4.53 4.53 0 0 1-.24-1.472c0-.523.083-1.021.248-1.496.165-.475.408-.893.728-1.256s.717-.648 1.192-.856c.475-.208 1.016-.312 1.624-.312zm-.048 1.376c-.448 0-.83.13-1.144.392-.315.261-.541.616-.68 1.064h3.056a.586.586 0 0 0 .024-.112c.005-.043.008-.096.008-.16 0-.341-.117-.624-.352-.848-.235-.224-.539-.336-.912-.336zm9.392 6.224v-4.864c0-.875-.347-1.312-1.04-1.312-.17 0-.355.032-.552.096a2.39 2.39 0 0 0-1.088.736c-.155.181-.264.39-.328.624V256h-1.76v-7.36h1.376l.08 1.088h.064a2.06 2.06 0 0 1 1.016-1 3.429 3.429 0 0 1 1.48-.328c.501 0 .957.099 1.368.296.41.197.717.536.92 1.016.213-.437.55-.765 1.008-.984.459-.219.95-.328 1.472-.328.341 0 .664.045.968.136.304.09.57.237.8.44.23.203.41.47.544.8.133.33.2.736.2 1.216V256h-1.76v-4.864c0-.875-.347-1.312-1.04-1.312-.17 0-.355.032-.552.096a2.39 2.39 0 0 0-1.088.736c-.155.181-.264.39-.328.624V256h-1.76zM160.88 405.928h-.536c-.176 0-.344-.005-.504-.016v3.984H158v-10.56a23.495 23.495 0 0 1 1.208-.056l.688-.016c.23-.005.445-.008.648-.008.597 0 1.141.072 1.632.216.49.144.912.36 1.264.648.352.288.624.643.816 1.064.192.421.288.91.288 1.464 0 .448-.075.87-.224 1.264-.15.395-.373.741-.672 1.04a3.19 3.19 0 0 1-1.144.712c-.464.176-1.005.264-1.624.264zm-.08-5.136h-.496c-.16 0-.315.005-.464.016v3.568c.15.01.307.016.472.016h.52c.576 0 1.01-.16 1.304-.48.293-.32.44-.784.44-1.392 0-.512-.13-.928-.392-1.248-.261-.32-.723-.48-1.384-.48zm8.208 1.504c.65 0 1.21.11 1.68.328.47.219.856.512 1.16.88.304.368.528.79.672 1.264.144.475.216.973.216 1.496s-.072 1.016-.216 1.48a3.3 3.3 0 0 1-.672 1.216 3.219 3.219 0 0 1-1.152.824c-.464.203-1.01.304-1.64.304-.65 0-1.21-.107-1.68-.32a3.355 3.355 0 0 1-1.168-.856 3.487 3.487 0 0 1-.688-1.24 4.879 4.879 0 0 1-.224-1.488c0-.523.075-1.019.224-1.488.15-.47.376-.883.68-1.24.304-.357.69-.64 1.16-.848.47-.208 1.019-.312 1.648-.312zm.032 6.464c.31 0 .579-.067.808-.2.23-.133.419-.315.568-.544.15-.23.259-.493.328-.792.07-.299.104-.613.104-.944 0-.341-.037-.67-.112-.984a2.654 2.654 0 0 0-.344-.832 1.824 1.824 0 0 0-.584-.576 1.59 1.59 0 0 0-.848-.216c-.31 0-.576.067-.8.2a1.656 1.656 0 0 0-.552.536 2.47 2.47 0 0 0-.32.784 4.56 4.56 0 0 0 0 1.928c.07.315.181.595.336.84.155.245.35.44.584.584.235.144.512.216.832.216zm8.592-6.464c.65 0 1.21.11 1.68.328.47.219.856.512 1.16.88.304.368.528.79.672 1.264.144.475.216.973.216 1.496s-.072 1.016-.216 1.48a3.3 3.3 0 0 1-.672 1.216 3.219 3.219 0 0 1-1.152.824c-.464.203-1.01.304-1.64.304-.65 0-1.21-.107-1.68-.32a3.355 3.355 0 0 1-1.168-.856 3.487 3.487 0 0 1-.688-1.24 4.879 4.879 0 0 1-.224-1.488c0-.523.075-1.019.224-1.488.15-.47.376-.883.68-1.24.304-.357.69-.64 1.16-.848.47-.208 1.019-.312 1.648-.312zm.032 6.464c.31 0 .579-.067.808-.2.23-.133.419-.315.568-.544.15-.23.259-.493.328-.792.07-.299.104-.613.104-.944 0-.341-.037-.67-.112-.984a2.654 2.654 0 0 0-.344-.832 1.824 1.824 0 0 0-.584-.576 1.59 1.59 0 0 0-.848-.216c-.31 0-.576.067-.8.2a1.656 1.656 0 0 0-.552.536 2.47 2.47 0 0 0-.32.784 4.56 4.56 0 0 0 0 1.928c.07.315.181.595.336.84.155.245.35.44.584.584.235.144.512.216.832.216zm9.52-4.624c-.107-.085-.272-.155-.496-.208a2.548 2.548 0 0 0-.576-.08c-.213 0-.39.05-.528.152a1.483 1.483 0 0 0-.368.4 2.672 2.672 0 0 0-.272.568 11.79 11.79 0 0 0-.208.656v4.272h-1.76v-7.36h1.376l.08 1.536h.064c.107-.224.219-.443.336-.656.117-.213.25-.403.4-.568.15-.165.323-.299.52-.4a1.51 1.51 0 0 1 .696-.152c.427 0 .827.139 1.2.416l-.464 1.424zm5.36-.528h-.912v-.96l1.04-.16.288-2.176h1.344v2.224h1.408v1.072h-1.408v4.224c0 .32.032.536.096.648.064.112.187.168.368.168.139 0 .277-.027.416-.08.139-.053.341-.155.608-.304l.288 1.264c-.203.17-.488.307-.856.408a4.114 4.114 0 0 1-1.096.152c-.32 0-.584-.043-.792-.128a1.087 1.087 0 0 1-.488-.376 1.48 1.48 0 0 1-.24-.6 4.4 4.4 0 0 1-.064-.784v-4.592zm9.296 6.288l-.128-1.008h-.064c-.288.363-.68.653-1.176.872a3.71 3.71 0 0 1-1.512.328c-.672 0-1.2-.195-1.584-.584-.384-.39-.576-.904-.576-1.544 0-.437.093-.83.28-1.176.187-.347.456-.64.808-.88.352-.24.773-.424 1.264-.552a6.533 6.533 0 0 1 1.648-.192h.688v-.24c0-.416-.133-.72-.4-.912-.277-.192-.71-.288-1.296-.288-.79 0-1.493.176-2.112.528l-.336-1.328c.715-.416 1.579-.624 2.592-.624 1.067 0 1.877.219 2.432.656.256.203.467.464.632.784.165.32.248.704.248 1.152v5.008h-1.408zm-2.192-1.232c.341 0 .683-.083 1.024-.248.341-.165.613-.387.816-.664v-1.456h-.304c-.875 0-1.512.112-1.912.336-.4.224-.6.581-.6 1.072 0 .64.325.96.976.96zm9.776-4.528c-.107-.085-.272-.155-.496-.208a2.548 2.548 0 0 0-.576-.08c-.213 0-.39.05-.528.152a1.483 1.483 0 0 0-.368.4 2.672 2.672 0 0 0-.272.568 11.79 11.79 0 0 0-.208.656v4.272h-1.76v-7.36h1.376l.08 1.536h.064c.107-.224.219-.443.336-.656.117-.213.25-.403.4-.568.15-.165.323-.299.52-.4a1.51 1.51 0 0 1 .696-.152c.427 0 .827.139 1.2.416l-.464 1.424zm2.528 3.44c-.48-.203-.827-.517-1.04-.944a3.069 3.069 0 0 1-.32-1.392c0-.416.07-.805.208-1.168.139-.363.339-.675.6-.936.261-.261.576-.467.944-.616.368-.15.787-.224 1.256-.224.277 0 .552.027.824.08.272.053.51.133.712.24.448-.01.856-.045 1.224-.104a9.383 9.383 0 0 0 1.064-.232l.144.112-.176 1.216-.08.08-1.136-.128-.016.048c.363.459.544.997.544 1.616 0 .373-.067.723-.2 1.048a2.393 2.393 0 0 1-.584.848c-.256.24-.573.432-.952.576a3.604 3.604 0 0 1-1.288.216 3.84 3.84 0 0 1-.28-.008 2.61 2.61 0 0 0-.2-.008 1.04 1.04 0 0 0-.416.248.455.455 0 0 0-.144.312c0 .117.059.219.176.304.117.085.299.144.544.176l1.552.192c.352.043.68.117.984.224.304.107.57.25.8.432.23.181.408.4.536.656.128.256.192.55.192.88 0 .33-.07.65-.208.96-.139.31-.357.581-.656.816-.299.235-.675.421-1.128.56-.453.139-1 .208-1.64.208a5.99 5.99 0 0 1-1.496-.168 3.766 3.766 0 0 1-1.096-.456 2.068 2.068 0 0 1-.68-.68 1.622 1.622 0 0 1-.232-.84c0-.213.037-.424.112-.632.075-.208.179-.4.312-.576a2.59 2.59 0 0 1 .464-.472c.176-.139.365-.24.568-.304v-.064c-.245-.107-.416-.25-.512-.432a1.126 1.126 0 0 1-.144-.528c0-.224.075-.432.224-.624a1.45 1.45 0 0 1 .64-.448v-.064zm1.712-.896c.437 0 .768-.141.992-.424.224-.283.336-.627.336-1.032 0-.192-.027-.387-.08-.584a1.606 1.606 0 0 0-.256-.536 1.413 1.413 0 0 0-.44-.392 1.213 1.213 0 0 0-.616-.152 1.24 1.24 0 0 0-1.016.496c-.112.15-.195.317-.248.504-.053.187-.08.376-.08.568 0 .192.03.381.088.568.059.187.147.352.264.496a1.327 1.327 0 0 0 1.056.488zm-.496 3.568a1.777 1.777 0 0 0-.928.456c-.256.24-.384.515-.384.824 0 .341.168.597.504.768.336.17.824.256 1.464.256.63 0 1.13-.088 1.504-.264.373-.176.56-.461.56-.856 0-.384-.208-.656-.624-.816-.416-.16-1.115-.283-2.096-.368zm8.896-7.952c.939 0 1.664.237 2.176.712.512.475.768 1.144.768 2.008 0 .117-.008.243-.024.376a4.62 4.62 0 0 1-.064.392 2.435 2.435 0 0 1-.096.344 1.197 1.197 0 0 1-.12.248h-4.656c.021.32.08.621.176.904.096.283.235.528.416.736.181.208.403.373.664.496s.568.184.92.184c.395 0 .813-.075 1.256-.224.443-.15.819-.336 1.128-.56l.288 1.312c-.139.085-.31.179-.512.28a5.263 5.263 0 0 1-.688.28c-.256.085-.53.157-.824.216-.293.059-.6.088-.92.088-.597 0-1.125-.104-1.584-.312a3.305 3.305 0 0 1-1.152-.848 3.694 3.694 0 0 1-.704-1.24 4.53 4.53 0 0 1-.24-1.472c0-.523.083-1.021.248-1.496.165-.475.408-.893.728-1.256s.717-.648 1.192-.856c.475-.208 1.016-.312 1.624-.312zm-.048 1.376c-.448 0-.83.13-1.144.392-.315.261-.541.616-.68 1.064h3.056a.586.586 0 0 0 .024-.112c.005-.043.008-.096.008-.16 0-.341-.117-.624-.352-.848-.235-.224-.539-.336-.912-.336zm4.96-.064h-.912v-.96l1.04-.16.288-2.176h1.344v2.224h1.408v1.072h-1.408v4.224c0 .32.032.536.096.648.064.112.187.168.368.168.139 0 .277-.027.416-.08.139-.053.341-.155.608-.304l.288 1.264c-.203.17-.488.307-.856.408a4.114 4.114 0 0 1-1.096.152c-.32 0-.584-.043-.792-.128a1.087 1.087 0 0 1-.488-.376 1.48 1.48 0 0 1-.24-.6 4.4 4.4 0 0 1-.064-.784v-4.592zm6.576 6.288h-1.76v-7.36h1.76v7.36zm-2.016-9.728c0-.15.03-.293.088-.432.059-.139.141-.264.248-.376.107-.112.227-.2.36-.264.133-.064.28-.096.44-.096.15 0 .293.032.432.096s.264.152.376.264c.112.112.2.237.264.376s.096.283.096.432c0 .16-.032.307-.096.44a1.23 1.23 0 0 1-.264.36c-.112.107-.237.19-.376.248a1.098 1.098 0 0 1-.432.088c-.31 0-.576-.112-.8-.336a1.092 1.092 0 0 1-.336-.8zm8.992 9.728v-4.864c0-.875-.373-1.312-1.12-1.312-.181 0-.376.032-.584.096a2.45 2.45 0 0 0-.6.28 2.333 2.333 0 0 0-.52.456c-.155.181-.27.39-.344.624v4.72h-1.76v-7.36h1.376l.08 1.088h.064a2.127 2.127 0 0 1 1.048-1 3.608 3.608 0 0 1 1.528-.328c.352 0 .683.045.992.136.31.09.584.237.824.44s.43.47.568.8c.139.33.208.736.208 1.216v5.008h-1.76zm4.64-2.32c-.48-.203-.827-.517-1.04-.944a3.069 3.069 0 0 1-.32-1.392c0-.416.07-.805.208-1.168.139-.363.339-.675.6-.936.261-.261.576-.467.944-.616.368-.15.787-.224 1.256-.224.277 0 .552.027.824.08.272.053.51.133.712.24.448-.01.856-.045 1.224-.104a9.383 9.383 0 0 0 1.064-.232l.144.112-.176 1.216-.08.08-1.136-.128-.016.048c.363.459.544.997.544 1.616 0 .373-.067.723-.2 1.048a2.393 2.393 0 0 1-.584.848c-.256.24-.573.432-.952.576a3.604 3.604 0 0 1-1.288.216 3.84 3.84 0 0 1-.28-.008 2.61 2.61 0 0 0-.2-.008 1.04 1.04 0 0 0-.416.248.455.455 0 0 0-.144.312c0 .117.059.219.176.304.117.085.299.144.544.176l1.552.192c.352.043.68.117.984.224.304.107.57.25.8.432.23.181.408.4.536.656.128.256.192.55.192.88 0 .33-.07.65-.208.96-.139.31-.357.581-.656.816-.299.235-.675.421-1.128.56-.453.139-1 .208-1.64.208a5.99 5.99 0 0 1-1.496-.168 3.766 3.766 0 0 1-1.096-.456 2.068 2.068 0 0 1-.68-.68 1.622 1.622 0 0 1-.232-.84c0-.213.037-.424.112-.632.075-.208.179-.4.312-.576a2.59 2.59 0 0 1 .464-.472c.176-.139.365-.24.568-.304v-.064c-.245-.107-.416-.25-.512-.432a1.126 1.126 0 0 1-.144-.528c0-.224.075-.432.224-.624a1.45 1.45 0 0 1 .64-.448v-.064zm1.712-.896c.437 0 .768-.141.992-.424.224-.283.336-.627.336-1.032 0-.192-.027-.387-.08-.584a1.606 1.606 0 0 0-.256-.536 1.413 1.413 0 0 0-.44-.392 1.213 1.213 0 0 0-.616-.152 1.24 1.24 0 0 0-1.016.496c-.112.15-.195.317-.248.504-.053.187-.08.376-.08.568 0 .192.03.381.088.568.059.187.147.352.264.496a1.327 1.327 0 0 0 1.056.488zm-.496 3.568a1.777 1.777 0 0 0-.928.456c-.256.24-.384.515-.384.824 0 .341.168.597.504.768.336.17.824.256 1.464.256.63 0 1.13-.088 1.504-.264.373-.176.56-.461.56-.856 0-.384-.208-.656-.624-.816-.416-.16-1.115-.283-2.096-.368zm-63.52 12.048c.65 0 1.21.11 1.68.328.47.219.856.512 1.16.88.304.368.528.79.672 1.264.144.475.216.973.216 1.496s-.072 1.016-.216 1.48a3.3 3.3 0 0 1-.672 1.216 3.219 3.219 0 0 1-1.152.824c-.464.203-1.01.304-1.64.304-.65 0-1.21-.107-1.68-.32a3.355 3.355 0 0 1-1.168-.856 3.487 3.487 0 0 1-.688-1.24 4.879 4.879 0 0 1-.224-1.488c0-.523.075-1.019.224-1.488.15-.47.376-.883.68-1.24.304-.357.69-.64 1.16-.848.47-.208 1.019-.312 1.648-.312zm.032 6.464c.31 0 .579-.067.808-.2.23-.133.419-.315.568-.544.15-.23.259-.493.328-.792.07-.299.104-.613.104-.944 0-.341-.037-.67-.112-.984a2.654 2.654 0 0 0-.344-.832 1.824 1.824 0 0 0-.584-.576 1.59 1.59 0 0 0-.848-.216c-.31 0-.576.067-.8.2a1.656 1.656 0 0 0-.552.536 2.47 2.47 0 0 0-.32.784 4.56 4.56 0 0 0 0 1.928c.07.315.181.595.336.84.155.245.35.44.584.584.235.144.512.216.832.216zm9.408-6.464c.576 0 1.072.11 1.488.328.416.219.76.51 1.032.872.272.363.472.781.6 1.256s.192.968.192 1.48a5.42 5.42 0 0 1-.2 1.488c-.133.47-.339.88-.616 1.232-.277.352-.624.63-1.04.832-.416.203-.912.304-1.488.304-.48 0-.925-.07-1.336-.208a2.064 2.064 0 0 1-.984-.672v4.848h-1.744v-11.52h1.408l.128 1.008h.064a3.453 3.453 0 0 1 1.12-.888c.224-.112.453-.2.688-.264a2.61 2.61 0 0 1 .688-.096zm-.288 1.344c-.16 0-.336.024-.528.072a2.918 2.918 0 0 0-.568.208c-.187.09-.365.2-.536.328a2.08 2.08 0 0 0-.432.432v3.12c.32.395.648.643.984.744.336.101.643.152.92.152.352 0 .653-.064.904-.192.25-.128.459-.301.624-.52.165-.219.288-.475.368-.768.08-.293.12-.61.12-.952 0-.32-.035-.637-.104-.952a2.617 2.617 0 0 0-.336-.84 1.96 1.96 0 0 0-.584-.6 1.477 1.477 0 0 0-.832-.232zm5.488-.032h-.912v-.96l1.04-.16.288-2.176h1.344v2.224h1.408v1.072h-1.408v4.224c0 .32.032.536.096.648.064.112.187.168.368.168.139 0 .277-.027.416-.08.139-.053.341-.155.608-.304l.288 1.264c-.203.17-.488.307-.856.408a4.114 4.114 0 0 1-1.096.152c-.32 0-.584-.043-.792-.128a1.087 1.087 0 0 1-.488-.376 1.48 1.48 0 0 1-.24-.6 4.4 4.4 0 0 1-.064-.784v-4.592zm6.576 6.288h-1.76v-7.36h1.76v7.36zm-2.016-9.728c0-.15.03-.293.088-.432.059-.139.141-.264.248-.376.107-.112.227-.2.36-.264.133-.064.28-.096.44-.096.15 0 .293.032.432.096s.264.152.376.264c.112.112.2.237.264.376s.096.283.096.432c0 .16-.032.307-.096.44a1.23 1.23 0 0 1-.264.36c-.112.107-.237.19-.376.248a1.098 1.098 0 0 1-.432.088c-.31 0-.576-.112-.8-.336a1.092 1.092 0 0 1-.336-.8zm7.344 2.128c.65 0 1.21.11 1.68.328.47.219.856.512 1.16.88.304.368.528.79.672 1.264.144.475.216.973.216 1.496s-.072 1.016-.216 1.48a3.3 3.3 0 0 1-.672 1.216 3.219 3.219 0 0 1-1.152.824c-.464.203-1.01.304-1.64.304-.65 0-1.21-.107-1.68-.32a3.355 3.355 0 0 1-1.168-.856 3.487 3.487 0 0 1-.688-1.24 4.879 4.879 0 0 1-.224-1.488c0-.523.075-1.019.224-1.488.15-.47.376-.883.68-1.24.304-.357.69-.64 1.16-.848.47-.208 1.019-.312 1.648-.312zm.032 6.464c.31 0 .579-.067.808-.2.23-.133.419-.315.568-.544.15-.23.259-.493.328-.792.07-.299.104-.613.104-.944 0-.341-.037-.67-.112-.984a2.654 2.654 0 0 0-.344-.832 1.824 1.824 0 0 0-.584-.576 1.59 1.59 0 0 0-.848-.216c-.31 0-.576.067-.8.2a1.656 1.656 0 0 0-.552.536 2.47 2.47 0 0 0-.32.784 4.56 4.56 0 0 0 0 1.928c.07.315.181.595.336.84.155.245.35.44.584.584.235.144.512.216.832.216zm10.24 1.136v-4.864c0-.875-.373-1.312-1.12-1.312-.181 0-.376.032-.584.096a2.45 2.45 0 0 0-.6.28 2.333 2.333 0 0 0-.52.456c-.155.181-.27.39-.344.624v4.72h-1.76v-7.36h1.376l.08 1.088h.064a2.127 2.127 0 0 1 1.048-1 3.608 3.608 0 0 1 1.528-.328c.352 0 .683.045.992.136.31.09.584.237.824.44s.43.47.568.8c.139.33.208.736.208 1.216v5.008h-1.76zm5.904-6.288c-.352 0-.627.067-.824.2a.646.646 0 0 0-.296.568c0 .16.056.307.168.44.112.133.35.243.712.328l1.136.256c.448.096.808.235 1.08.416s.485.379.64.592c.155.213.259.432.312.656.053.224.08.432.08.624a2.2 2.2 0 0 1-.8 1.712 2.868 2.868 0 0 1-.928.504 3.78 3.78 0 0 1-1.216.184 4.785 4.785 0 0 1-1.568-.248c-.48-.165-.864-.35-1.152-.552l.416-1.52c.363.352.77.613 1.224.784.453.17.872.256 1.256.256.405 0 .715-.088.928-.264.213-.176.32-.419.32-.728a.67.67 0 0 0-.16-.456c-.107-.123-.32-.227-.64-.312l-1.536-.384c-.363-.085-.659-.208-.888-.368-.23-.16-.41-.339-.544-.536a1.803 1.803 0 0 1-.272-.616 2.772 2.772 0 0 1-.072-.608c0-.715.25-1.267.752-1.656.501-.39 1.152-.584 1.952-.584.416 0 .864.056 1.344.168.48.112.885.275 1.216.488l-.464 1.44c-.213-.17-.512-.344-.896-.52a3.036 3.036 0 0 0-1.28-.264zM52.352 108.32h4.4v1.6h-6.24V99.36h1.84v8.96zm10.128 1.6l-.128-1.008h-.064c-.288.363-.68.653-1.176.872a3.71 3.71 0 0 1-1.512.328c-.672 0-1.2-.195-1.584-.584-.384-.39-.576-.904-.576-1.544 0-.437.093-.83.28-1.176.187-.347.456-.64.808-.88.352-.24.773-.424 1.264-.552a6.533 6.533 0 0 1 1.648-.192h.688v-.24c0-.416-.133-.72-.4-.912-.277-.192-.71-.288-1.296-.288-.79 0-1.493.176-2.112.528l-.336-1.328c.715-.416 1.579-.624 2.592-.624 1.067 0 1.877.219 2.432.656.256.203.467.464.632.784.165.32.248.704.248 1.152v5.008H62.48zm-2.192-1.232c.341 0 .683-.083 1.024-.248.341-.165.613-.387.816-.664v-1.456h-.304c-.875 0-1.512.112-1.912.336-.4.224-.6.581-.6 1.072 0 .64.325.96.976.96zm11.248-4.304a2.917 2.917 0 0 0-.44-.256 4.198 4.198 0 0 0-.568-.224 4.752 4.752 0 0 0-.632-.152 3.67 3.67 0 0 0-.616-.056c-.363 0-.67.067-.92.2a1.72 1.72 0 0 0-.608.528 2.188 2.188 0 0 0-.336.76c-.07.288-.104.587-.104.896 0 .363.043.701.128 1.016.085.315.213.59.384.824.17.235.387.421.648.56a1.9 1.9 0 0 0 .904.208c.384 0 .792-.077 1.224-.232a2.98 2.98 0 0 0 1.08-.648l.32 1.504c-.299.192-.707.373-1.224.544-.517.17-1.07.256-1.656.256-.619 0-1.16-.107-1.624-.32a3.292 3.292 0 0 1-1.152-.856 3.646 3.646 0 0 1-.688-1.248 4.85 4.85 0 0 1-.232-1.512c0-.512.072-1 .216-1.464a3.4 3.4 0 0 1 .68-1.232 3.25 3.25 0 0 1 1.184-.848c.48-.208 1.056-.312 1.728-.312.512 0 1.013.059 1.504.176.49.117.885.272 1.184.464l-.384 1.424zm5.536.768l3.136 4.768h-1.92l-2.384-3.616-.624.624v2.992h-1.76V98.08h1.76v6.832l2.448-2.352h1.968l-2.624 2.592zm11.216-2.832c.65 0 1.21.11 1.68.328.47.219.856.512 1.16.88.304.368.528.79.672 1.264.144.475.216.973.216 1.496s-.072 1.016-.216 1.48a3.3 3.3 0 0 1-.672 1.216 3.219 3.219 0 0 1-1.152.824c-.464.203-1.01.304-1.64.304-.65 0-1.21-.107-1.68-.32a3.355 3.355 0 0 1-1.168-.856 3.487 3.487 0 0 1-.688-1.24 4.879 4.879 0 0 1-.224-1.488c0-.523.075-1.019.224-1.488.15-.47.376-.883.68-1.24.304-.357.69-.64 1.16-.848.47-.208 1.019-.312 1.648-.312zm.032 6.464c.31 0 .579-.067.808-.2.23-.133.419-.315.568-.544.15-.23.259-.493.328-.792.07-.299.104-.613.104-.944 0-.341-.037-.67-.112-.984a2.654 2.654 0 0 0-.344-.832 1.824 1.824 0 0 0-.584-.576 1.59 1.59 0 0 0-.848-.216c-.31 0-.576.067-.8.2a1.656 1.656 0 0 0-.552.536 2.47 2.47 0 0 0-.32.784 4.56 4.56 0 0 0 0 1.928c.07.315.181.595.336.84.155.245.35.44.584.584.235.144.512.216.832.216zm5.584-5.152h-.912v-.912l.912-.144c0-.608.019-1.125.056-1.552.037-.427.088-.787.152-1.08a3.85 3.85 0 0 1 .216-.712c.08-.181.163-.33.248-.448.213-.277.493-.477.84-.6A3.409 3.409 0 0 1 96.56 98c.053 0 .139.003.256.008.117.005.248.019.392.04.144.021.293.056.448.104.155.048.296.11.424.184l-.4 1.36a5.883 5.883 0 0 0-.528-.264 1.726 1.726 0 0 0-.72-.168.62.62 0 0 0-.352.096c-.096.064-.176.181-.24.352a2.7 2.7 0 0 0-.136.688 12.4 12.4 0 0 0-.04 1.104v1.056h1.408v1.072h-1.408v6.288h-1.76v-6.288zM53.096 122.32c.576 0 1.072.11 1.488.328.416.219.76.51 1.032.872.272.363.472.781.6 1.256s.192.968.192 1.48a5.42 5.42 0 0 1-.2 1.488c-.133.47-.339.88-.616 1.232-.277.352-.624.63-1.04.832-.416.203-.912.304-1.488.304-.48 0-.925-.07-1.336-.208a2.064 2.064 0 0 1-.984-.672v4.848H49v-11.52h1.408l.128 1.008h.064a3.453 3.453 0 0 1 1.12-.888c.224-.112.453-.2.688-.264a2.61 2.61 0 0 1 .688-.096zm-.288 1.344c-.16 0-.336.024-.528.072a2.918 2.918 0 0 0-.568.208c-.187.09-.365.2-.536.328a2.08 2.08 0 0 0-.432.432v3.12c.32.395.648.643.984.744.336.101.643.152.92.152.352 0 .653-.064.904-.192.25-.128.459-.301.624-.52.165-.219.288-.475.368-.768.08-.293.12-.61.12-.952 0-.32-.035-.637-.104-.952a2.617 2.617 0 0 0-.336-.84 1.96 1.96 0 0 0-.584-.6 1.477 1.477 0 0 0-.832-.232zm9.44.496c-.107-.085-.272-.155-.496-.208a2.548 2.548 0 0 0-.576-.08c-.213 0-.39.05-.528.152a1.483 1.483 0 0 0-.368.4 2.672 2.672 0 0 0-.272.568 11.79 11.79 0 0 0-.208.656v4.272h-1.76v-7.36h1.376l.08 1.536h.064c.107-.224.219-.443.336-.656.117-.213.25-.403.4-.568.15-.165.323-.299.52-.4a1.51 1.51 0 0 1 .696-.152c.427 0 .827.139 1.2.416l-.464 1.424zm3.376 5.76h-1.76v-7.36h1.76v7.36zm-2.016-9.728c0-.15.03-.293.088-.432.059-.139.141-.264.248-.376.107-.112.227-.2.36-.264.133-.064.28-.096.44-.096.15 0 .293.032.432.096s.264.152.376.264c.112.112.2.237.264.376s.096.283.096.432c0 .16-.032.307-.096.44a1.23 1.23 0 0 1-.264.36c-.112.107-.237.19-.376.248a1.098 1.098 0 0 1-.432.088c-.31 0-.576-.112-.8-.336a1.092 1.092 0 0 1-.336-.8zm8.192 9.728h-2.128l-2.944-7.36h1.84l2.224 5.904 2.32-5.904h1.728l-3.04 7.36zm8.576 0l-.128-1.008h-.064c-.288.363-.68.653-1.176.872a3.71 3.71 0 0 1-1.512.328c-.672 0-1.2-.195-1.584-.584-.384-.39-.576-.904-.576-1.544 0-.437.093-.83.28-1.176.187-.347.456-.64.808-.88.352-.24.773-.424 1.264-.552a6.533 6.533 0 0 1 1.648-.192h.688v-.24c0-.416-.133-.72-.4-.912-.277-.192-.71-.288-1.296-.288-.79 0-1.493.176-2.112.528l-.336-1.328c.715-.416 1.579-.624 2.592-.624 1.067 0 1.877.219 2.432.656.256.203.467.464.632.784.165.32.248.704.248 1.152v5.008h-1.408zm-2.192-1.232c.341 0 .683-.083 1.024-.248.341-.165.613-.387.816-.664v-1.456h-.304c-.875 0-1.512.112-1.912.336-.4.224-.6.581-.6 1.072 0 .64.325.96.976.96zm11.248-4.304a2.917 2.917 0 0 0-.44-.256 4.198 4.198 0 0 0-.568-.224 4.752 4.752 0 0 0-.632-.152 3.67 3.67 0 0 0-.616-.056c-.363 0-.67.067-.92.2a1.72 1.72 0 0 0-.608.528 2.188 2.188 0 0 0-.336.76c-.07.288-.104.587-.104.896 0 .363.043.701.128 1.016.085.315.213.59.384.824.17.235.387.421.648.56a1.9 1.9 0 0 0 .904.208c.384 0 .792-.077 1.224-.232a2.98 2.98 0 0 0 1.08-.648l.32 1.504c-.299.192-.707.373-1.224.544-.517.17-1.07.256-1.656.256-.619 0-1.16-.107-1.624-.32a3.292 3.292 0 0 1-1.152-.856 3.646 3.646 0 0 1-.688-1.248 4.85 4.85 0 0 1-.232-1.512c0-.512.072-1 .216-1.464a3.4 3.4 0 0 1 .68-1.232 3.25 3.25 0 0 1 1.184-.848c.48-.208 1.056-.312 1.728-.312.512 0 1.013.059 1.504.176.49.117.885.272 1.184.464l-.384 1.424zm5.168 3.408l2.048-5.232h1.696l-3.04 7.424c-.15.373-.355.792-.616 1.256a7.86 7.86 0 0 1-.928 1.312c-.357.41-.76.757-1.208 1.04a2.678 2.678 0 0 1-1.648.416.592.592 0 0 1-.144-.04l-.304-1.376.112.032a2.805 2.805 0 0 0 .872-.048c.197-.043.397-.128.6-.256a3.34 3.34 0 0 0 1-1.024c.283-.437.557-.976.824-1.616l-3.664-7.12h1.84l2.56 5.232zM401 172.36c.139-.01.357-.021.656-.032.299-.01.613-.019.944-.024l.952-.016c.304-.005.541-.008.712-.008 1.035 0 1.885.107 2.552.32.667.213 1.219.507 1.656.88.565.49.976 1.115 1.232 1.872.256.757.384 1.595.384 2.512a7.42 7.42 0 0 1-.264 1.992 3.93 3.93 0 0 1-.944 1.672c-.453.48-1.077.861-1.872 1.144-.795.283-1.81.424-3.048.424-.448 0-.928-.016-1.44-.048a35.013 35.013 0 0 1-1.52-.128v-10.56zm3.408 9.216c1.29 0 2.232-.31 2.824-.928.592-.619.888-1.627.888-3.024 0-.63-.061-1.181-.184-1.656a2.702 2.702 0 0 0-.632-1.192c-.299-.32-.699-.56-1.2-.72-.501-.16-1.125-.24-1.872-.24h-.6a20 20 0 0 0-.792.016v7.68a26.36 26.36 0 0 0 1.568.064zm11.76 1.344l-.128-1.008h-.064c-.288.363-.68.653-1.176.872a3.71 3.71 0 0 1-1.512.328c-.672 0-1.2-.195-1.584-.584-.384-.39-.576-.904-.576-1.544 0-.437.093-.83.28-1.176.187-.347.456-.64.808-.88.352-.24.773-.424 1.264-.552a6.533 6.533 0 0 1 1.648-.192h.688v-.24c0-.416-.133-.72-.4-.912-.277-.192-.71-.288-1.296-.288-.79 0-1.493.176-2.112.528l-.336-1.328c.715-.416 1.579-.624 2.592-.624 1.067 0 1.877.219 2.432.656.256.203.467.464.632.784.165.32.248.704.248 1.152v5.008h-1.408zm-2.192-1.232c.341 0 .683-.083 1.024-.248.341-.165.613-.387.816-.664v-1.456h-.304c-.875 0-1.512.112-1.912.336-.4.224-.6.581-.6 1.072 0 .64.325.96.976.96zm5.84-5.056h-.912v-.96l1.04-.16.288-2.176h1.344v2.224h1.408v1.072h-1.408v4.224c0 .32.032.536.096.648.064.112.187.168.368.168.139 0 .277-.027.416-.08.139-.053.341-.155.608-.304l.288 1.264c-.203.17-.488.307-.856.408a4.114 4.114 0 0 1-1.096.152c-.32 0-.584-.043-.792-.128a1.087 1.087 0 0 1-.488-.376 1.48 1.48 0 0 1-.24-.6 4.4 4.4 0 0 1-.064-.784v-4.592zm9.296 6.288l-.128-1.008h-.064c-.288.363-.68.653-1.176.872a3.71 3.71 0 0 1-1.512.328c-.672 0-1.2-.195-1.584-.584-.384-.39-.576-.904-.576-1.544 0-.437.093-.83.28-1.176.187-.347.456-.64.808-.88.352-.24.773-.424 1.264-.552a6.533 6.533 0 0 1 1.648-.192h.688v-.24c0-.416-.133-.72-.4-.912-.277-.192-.71-.288-1.296-.288-.79 0-1.493.176-2.112.528l-.336-1.328c.715-.416 1.579-.624 2.592-.624 1.067 0 1.877.219 2.432.656.256.203.467.464.632.784.165.32.248.704.248 1.152v5.008h-1.408zm-2.192-1.232c.341 0 .683-.083 1.024-.248.341-.165.613-.387.816-.664v-1.456h-.304c-.875 0-1.512.112-1.912.336-.4.224-.6.581-.6 1.072 0 .64.325.96.976.96zm16.064-7.728h-3.056v8.96h-1.84v-8.96h-3.056v-1.6h7.952v1.6zm3.04 2.688c.299-.47.648-.808 1.048-1.016.4-.208.872-.312 1.416-.312.32 0 .63.045.928.136.299.09.563.237.792.44.23.203.41.47.544.8.133.33.2.736.2 1.216v5.008h-1.76v-4.864c0-.437-.096-.765-.288-.984-.192-.219-.453-.328-.784-.328-.203 0-.413.032-.632.096-.219.064-.424.16-.616.288a2.347 2.347 0 0 0-.512.464c-.15.181-.261.384-.336.608v4.72h-1.76v-11.84h1.76v5.568zm10.256-1.328c.939 0 1.664.237 2.176.712.512.475.768 1.144.768 2.008 0 .117-.008.243-.024.376a4.62 4.62 0 0 1-.064.392 2.435 2.435 0 0 1-.096.344 1.197 1.197 0 0 1-.12.248h-4.656c.021.32.08.621.176.904.096.283.235.528.416.736.181.208.403.373.664.496s.568.184.92.184c.395 0 .813-.075 1.256-.224.443-.15.819-.336 1.128-.56l.288 1.312c-.139.085-.31.179-.512.28a5.263 5.263 0 0 1-.688.28c-.256.085-.53.157-.824.216-.293.059-.6.088-.92.088-.597 0-1.125-.104-1.584-.312a3.305 3.305 0 0 1-1.152-.848 3.694 3.694 0 0 1-.704-1.24 4.53 4.53 0 0 1-.24-1.472c0-.523.083-1.021.248-1.496.165-.475.408-.893.728-1.256s.717-.648 1.192-.856c.475-.208 1.016-.312 1.624-.312zm-.048 1.376c-.448 0-.83.13-1.144.392-.315.261-.541.616-.68 1.064h3.056a.586.586 0 0 0 .024-.112c.005-.043.008-.096.008-.16 0-.341-.117-.624-.352-.848-.235-.224-.539-.336-.912-.336zm4.976-.064h-.912v-.912l.912-.144c0-.608.019-1.125.056-1.552.037-.427.088-.787.152-1.08a3.85 3.85 0 0 1 .216-.712c.08-.181.163-.33.248-.448.213-.277.493-.477.84-.6a3.409 3.409 0 0 1 1.144-.184c.053 0 .139.003.256.008.117.005.248.019.392.04.144.021.293.056.448.104.155.048.296.11.424.184l-.4 1.36a5.884 5.884 0 0 0-.528-.264 1.726 1.726 0 0 0-.72-.168.62.62 0 0 0-.352.096c-.096.064-.176.181-.24.352a2.7 2.7 0 0 0-.136.688 12.4 12.4 0 0 0-.04 1.104v1.056h1.408v1.072h-1.408v6.288h-1.76v-6.288zm4.784 0h-.912v-.96l1.04-.16.288-2.176h1.344v2.224h1.408v1.072h-1.408v4.224c0 .32.032.536.096.648.064.112.187.168.368.168.139 0 .277-.027.416-.08.139-.053.341-.155.608-.304l.288 1.264c-.203.17-.488.307-.856.408a4.114 4.114 0 0 1-1.096.152c-.32 0-.584-.043-.792-.128a1.087 1.087 0 0 1-.488-.376 1.48 1.48 0 0 1-.24-.6 4.4 4.4 0 0 1-.064-.784v-4.592zm-59.888 27.2h-1.84l4.448-12.144h1.84l-4.448 12.144zm8-2.512h4.4v1.6h-6.24v-10.56h1.84v8.96zm8.88-6c.939 0 1.664.237 2.176.712.512.475.768 1.144.768 2.008 0 .117-.008.243-.024.376a4.62 4.62 0 0 1-.064.392 2.435 2.435 0 0 1-.096.344 1.197 1.197 0 0 1-.12.248h-4.656c.021.32.08.621.176.904.096.283.235.528.416.736.181.208.403.373.664.496s.568.184.92.184c.395 0 .813-.075 1.256-.224.443-.15.819-.336 1.128-.56l.288 1.312c-.139.085-.31.179-.512.28a5.263 5.263 0 0 1-.688.28c-.256.085-.53.157-.824.216-.293.059-.6.088-.92.088-.597 0-1.125-.104-1.584-.312a3.305 3.305 0 0 1-1.152-.848 3.694 3.694 0 0 1-.704-1.24 4.53 4.53 0 0 1-.24-1.472c0-.523.083-1.021.248-1.496.165-.475.408-.893.728-1.256s.717-.648 1.192-.856c.475-.208 1.016-.312 1.624-.312zm-.048 1.376c-.448 0-.83.13-1.144.392-.315.261-.541.616-.68 1.064h3.056a.586.586 0 0 0 .024-.112c.005-.043.008-.096.008-.16 0-.341-.117-.624-.352-.848-.235-.224-.539-.336-.912-.336zm9.104 6.224l-.128-1.008h-.064c-.288.363-.68.653-1.176.872a3.71 3.71 0 0 1-1.512.328c-.672 0-1.2-.195-1.584-.584-.384-.39-.576-.904-.576-1.544 0-.437.093-.83.28-1.176.187-.347.456-.64.808-.88.352-.24.773-.424 1.264-.552a6.533 6.533 0 0 1 1.648-.192h.688v-.24c0-.416-.133-.72-.4-.912-.277-.192-.71-.288-1.296-.288-.79 0-1.493.176-2.112.528l-.336-1.328c.715-.416 1.579-.624 2.592-.624 1.067 0 1.877.219 2.432.656.256.203.467.464.632.784.165.32.248.704.248 1.152v5.008h-1.408zm-2.192-1.232c.341 0 .683-.083 1.024-.248.341-.165.613-.387.816-.664v-1.456h-.304c-.875 0-1.512.112-1.912.336-.4.224-.6.581-.6 1.072 0 .64.325.96.976.96zm9.12-3.536l3.136 4.768h-1.92l-2.384-3.616-.624.624v2.992h-1.76v-11.84h1.76v6.832l2.448-2.352h1.968l-2.624 2.592zm8.592 4.768l-.128-1.008h-.064c-.288.363-.68.653-1.176.872a3.71 3.71 0 0 1-1.512.328c-.672 0-1.2-.195-1.584-.584-.384-.39-.576-.904-.576-1.544 0-.437.093-.83.28-1.176.187-.347.456-.64.808-.88.352-.24.773-.424 1.264-.552a6.533 6.533 0 0 1 1.648-.192h.688v-.24c0-.416-.133-.72-.4-.912-.277-.192-.71-.288-1.296-.288-.79 0-1.493.176-2.112.528l-.336-1.328c.715-.416 1.579-.624 2.592-.624 1.067 0 1.877.219 2.432.656.256.203.467.464.632.784.165.32.248.704.248 1.152v5.008h-1.408zm-2.192-1.232c.341 0 .683-.083 1.024-.248.341-.165.613-.387.816-.664v-1.456h-.304c-.875 0-1.512.112-1.912.336-.4.224-.6.581-.6 1.072 0 .64.325.96.976.96zm6.544-1.088c-.48-.203-.827-.517-1.04-.944a3.069 3.069 0 0 1-.32-1.392c0-.416.07-.805.208-1.168.139-.363.339-.675.6-.936.261-.261.576-.467.944-.616.368-.15.787-.224 1.256-.224.277 0 .552.027.824.08.272.053.51.133.712.24.448-.01.856-.045 1.224-.104a9.383 9.383 0 0 0 1.064-.232l.144.112-.176 1.216-.08.08-1.136-.128-.016.048c.363.459.544.997.544 1.616 0 .373-.067.723-.2 1.048a2.393 2.393 0 0 1-.584.848c-.256.24-.573.432-.952.576a3.604 3.604 0 0 1-1.288.216 3.84 3.84 0 0 1-.28-.008 2.61 2.61 0 0 0-.2-.008 1.04 1.04 0 0 0-.416.248.455.455 0 0 0-.144.312c0 .117.059.219.176.304.117.085.299.144.544.176l1.552.192c.352.043.68.117.984.224.304.107.57.25.8.432.23.181.408.4.536.656.128.256.192.55.192.88 0 .33-.07.65-.208.96-.139.31-.357.581-.656.816-.299.235-.675.421-1.128.56-.453.139-1 .208-1.64.208a5.99 5.99 0 0 1-1.496-.168 3.766 3.766 0 0 1-1.096-.456 2.068 2.068 0 0 1-.68-.68 1.622 1.622 0 0 1-.232-.84c0-.213.037-.424.112-.632.075-.208.179-.4.312-.576a2.59 2.59 0 0 1 .464-.472c.176-.139.365-.24.568-.304v-.064c-.245-.107-.416-.25-.512-.432a1.126 1.126 0 0 1-.144-.528c0-.224.075-.432.224-.624a1.45 1.45 0 0 1 .64-.448v-.064zm1.712-.896c.437 0 .768-.141.992-.424.224-.283.336-.627.336-1.032 0-.192-.027-.387-.08-.584a1.606 1.606 0 0 0-.256-.536 1.413 1.413 0 0 0-.44-.392 1.213 1.213 0 0 0-.616-.152 1.24 1.24 0 0 0-1.016.496c-.112.15-.195.317-.248.504-.053.187-.08.376-.08.568 0 .192.03.381.088.568.059.187.147.352.264.496a1.327 1.327 0 0 0 1.056.488zm-.496 3.568a1.777 1.777 0 0 0-.928.456c-.256.24-.384.515-.384.824 0 .341.168.597.504.768.336.17.824.256 1.464.256.63 0 1.13-.088 1.504-.264.373-.176.56-.461.56-.856 0-.384-.208-.656-.624-.816-.416-.16-1.115-.283-2.096-.368zm8.896-7.952c.939 0 1.664.237 2.176.712.512.475.768 1.144.768 2.008 0 .117-.008.243-.024.376a4.62 4.62 0 0 1-.064.392 2.435 2.435 0 0 1-.096.344 1.197 1.197 0 0 1-.12.248h-4.656c.021.32.08.621.176.904.096.283.235.528.416.736.181.208.403.373.664.496s.568.184.92.184c.395 0 .813-.075 1.256-.224.443-.15.819-.336 1.128-.56l.288 1.312c-.139.085-.31.179-.512.28a5.263 5.263 0 0 1-.688.28c-.256.085-.53.157-.824.216-.293.059-.6.088-.92.088-.597 0-1.125-.104-1.584-.312a3.305 3.305 0 0 1-1.152-.848 3.694 3.694 0 0 1-.704-1.24 4.53 4.53 0 0 1-.24-1.472c0-.523.083-1.021.248-1.496.165-.475.408-.893.728-1.256s.717-.648 1.192-.856c.475-.208 1.016-.312 1.624-.312zm-.048 1.376c-.448 0-.83.13-1.144.392-.315.261-.541.616-.68 1.064h3.056a.586.586 0 0 0 .024-.112c.005-.043.008-.096.008-.16 0-.341-.117-.624-.352-.848-.235-.224-.539-.336-.912-.336zm-91.552-88.376h4.4v1.6h-6.24V99.36h1.84v8.96zm10.128 1.6l-.128-1.008h-.064c-.288.363-.68.653-1.176.872a3.71 3.71 0 0 1-1.512.328c-.672 0-1.2-.195-1.584-.584-.384-.39-.576-.904-.576-1.544 0-.437.093-.83.28-1.176.187-.347.456-.64.808-.88.352-.24.773-.424 1.264-.552a6.533 6.533 0 0 1 1.648-.192h.688v-.24c0-.416-.133-.72-.4-.912-.277-.192-.71-.288-1.296-.288-.79 0-1.493.176-2.112.528l-.336-1.328c.715-.416 1.579-.624 2.592-.624 1.067 0 1.877.219 2.432.656.256.203.467.464.632.784.165.32.248.704.248 1.152v5.008h-1.408zm-2.192-1.232c.341 0 .683-.083 1.024-.248.341-.165.613-.387.816-.664v-1.456h-.304c-.875 0-1.512.112-1.912.336-.4.224-.6.581-.6 1.072 0 .64.325.96.976.96zm11.248-4.304a2.917 2.917 0 0 0-.44-.256 4.198 4.198 0 0 0-.568-.224 4.752 4.752 0 0 0-.632-.152 3.67 3.67 0 0 0-.616-.056c-.363 0-.67.067-.92.2a1.72 1.72 0 0 0-.608.528 2.188 2.188 0 0 0-.336.76c-.07.288-.104.587-.104.896 0 .363.043.701.128 1.016.085.315.213.59.384.824.17.235.387.421.648.56a1.9 1.9 0 0 0 .904.208c.384 0 .792-.077 1.224-.232a2.98 2.98 0 0 0 1.08-.648l.32 1.504c-.299.192-.707.373-1.224.544-.517.17-1.07.256-1.656.256-.619 0-1.16-.107-1.624-.32a3.292 3.292 0 0 1-1.152-.856 3.646 3.646 0 0 1-.688-1.248 4.85 4.85 0 0 1-.232-1.512c0-.512.072-1 .216-1.464a3.4 3.4 0 0 1 .68-1.232 3.25 3.25 0 0 1 1.184-.848c.48-.208 1.056-.312 1.728-.312.512 0 1.013.059 1.504.176.49.117.885.272 1.184.464l-.384 1.424zm5.536.768l3.136 4.768h-1.92l-2.384-3.616-.624.624v2.992h-1.76V98.08h1.76v6.832l2.448-2.352h1.968l-2.624 2.592zm11.216-2.832c.65 0 1.21.11 1.68.328.47.219.856.512 1.16.88.304.368.528.79.672 1.264.144.475.216.973.216 1.496s-.072 1.016-.216 1.48a3.3 3.3 0 0 1-.672 1.216 3.219 3.219 0 0 1-1.152.824c-.464.203-1.01.304-1.64.304-.65 0-1.21-.107-1.68-.32a3.355 3.355 0 0 1-1.168-.856 3.487 3.487 0 0 1-.688-1.24 4.879 4.879 0 0 1-.224-1.488c0-.523.075-1.019.224-1.488.15-.47.376-.883.68-1.24.304-.357.69-.64 1.16-.848.47-.208 1.019-.312 1.648-.312zm.032 6.464c.31 0 .579-.067.808-.2.23-.133.419-.315.568-.544.15-.23.259-.493.328-.792.07-.299.104-.613.104-.944 0-.341-.037-.67-.112-.984a2.654 2.654 0 0 0-.344-.832 1.824 1.824 0 0 0-.584-.576 1.59 1.59 0 0 0-.848-.216c-.31 0-.576.067-.8.2a1.656 1.656 0 0 0-.552.536 2.47 2.47 0 0 0-.32.784 4.56 4.56 0 0 0 0 1.928c.07.315.181.595.336.84.155.245.35.44.584.584.235.144.512.216.832.216zm5.584-5.152h-.912v-.912l.912-.144c0-.608.019-1.125.056-1.552.037-.427.088-.787.152-1.08a3.85 3.85 0 0 1 .216-.712c.08-.181.163-.33.248-.448.213-.277.493-.477.84-.6a3.409 3.409 0 0 1 1.144-.184c.053 0 .139.003.256.008.117.005.248.019.392.04.144.021.293.056.448.104.155.048.296.11.424.184l-.4 1.36a5.883 5.883 0 0 0-.528-.264 1.726 1.726 0 0 0-.72-.168.62.62 0 0 0-.352.096c-.096.064-.176.181-.24.352a2.7 2.7 0 0 0-.136.688 12.4 12.4 0 0 0-.04 1.104v1.056h1.408v1.072h-1.408v6.288h-1.76v-6.288zm-66.96 26.288h-1.76v-7.36h1.76v7.36zM343 120.192c0-.15.03-.293.088-.432.059-.139.141-.264.248-.376.107-.112.227-.2.36-.264.133-.064.28-.096.44-.096.15 0 .293.032.432.096s.264.152.376.264c.112.112.2.237.264.376s.096.283.096.432c0 .16-.032.307-.096.44a1.23 1.23 0 0 1-.264.36c-.112.107-.237.19-.376.248a1.098 1.098 0 0 1-.432.088c-.31 0-.576-.112-.8-.336a1.092 1.092 0 0 1-.336-.8zm8.992 9.728v-4.864c0-.875-.373-1.312-1.12-1.312-.181 0-.376.032-.584.096a2.45 2.45 0 0 0-.6.28 2.333 2.333 0 0 0-.52.456c-.155.181-.27.39-.344.624v4.72h-1.76v-7.36h1.376l.08 1.088h.064a2.127 2.127 0 0 1 1.048-1 3.608 3.608 0 0 1 1.528-.328c.352 0 .683.045.992.136.31.09.584.237.824.44s.43.47.568.8c.139.33.208.736.208 1.216v5.008h-1.76zm9.344-5.536a2.917 2.917 0 0 0-.44-.256 4.198 4.198 0 0 0-.568-.224 4.752 4.752 0 0 0-.632-.152 3.67 3.67 0 0 0-.616-.056c-.363 0-.67.067-.92.2a1.72 1.72 0 0 0-.608.528 2.188 2.188 0 0 0-.336.76c-.07.288-.104.587-.104.896 0 .363.043.701.128 1.016.085.315.213.59.384.824.17.235.387.421.648.56a1.9 1.9 0 0 0 .904.208c.384 0 .792-.077 1.224-.232a2.98 2.98 0 0 0 1.08-.648l.32 1.504c-.299.192-.707.373-1.224.544-.517.17-1.07.256-1.656.256-.619 0-1.16-.107-1.624-.32a3.292 3.292 0 0 1-1.152-.856 3.646 3.646 0 0 1-.688-1.248 4.85 4.85 0 0 1-.232-1.512c0-.512.072-1 .216-1.464a3.4 3.4 0 0 1 .68-1.232 3.25 3.25 0 0 1 1.184-.848c.48-.208 1.056-.312 1.728-.312.512 0 1.013.059 1.504.176.49.117.885.272 1.184.464l-.384 1.424zm5.216-2.064c.939 0 1.664.237 2.176.712.512.475.768 1.144.768 2.008 0 .117-.008.243-.024.376a4.62 4.62 0 0 1-.064.392 2.435 2.435 0 0 1-.096.344 1.197 1.197 0 0 1-.12.248h-4.656c.021.32.08.621.176.904.096.283.235.528.416.736.181.208.403.373.664.496s.568.184.92.184c.395 0 .813-.075 1.256-.224.443-.15.819-.336 1.128-.56l.288 1.312c-.139.085-.31.179-.512.28a5.263 5.263 0 0 1-.688.28c-.256.085-.53.157-.824.216-.293.059-.6.088-.92.088-.597 0-1.125-.104-1.584-.312a3.305 3.305 0 0 1-1.152-.848 3.694 3.694 0 0 1-.704-1.24 4.53 4.53 0 0 1-.24-1.472c0-.523.083-1.021.248-1.496.165-.475.408-.893.728-1.256s.717-.648 1.192-.856c.475-.208 1.016-.312 1.624-.312zm-.048 1.376c-.448 0-.83.13-1.144.392-.315.261-.541.616-.68 1.064h3.056a.586.586 0 0 0 .024-.112c.005-.043.008-.096.008-.16 0-.341-.117-.624-.352-.848-.235-.224-.539-.336-.912-.336zm9.552 6.224v-4.864c0-.875-.373-1.312-1.12-1.312-.181 0-.376.032-.584.096a2.45 2.45 0 0 0-.6.28 2.333 2.333 0 0 0-.52.456c-.155.181-.27.39-.344.624v4.72h-1.76v-7.36h1.376l.08 1.088h.064a2.127 2.127 0 0 1 1.048-1 3.608 3.608 0 0 1 1.528-.328c.352 0 .683.045.992.136.31.09.584.237.824.44s.43.47.568.8c.139.33.208.736.208 1.216v5.008h-1.76zm4-6.288h-.912v-.96l1.04-.16.288-2.176h1.344v2.224h1.408v1.072h-1.408v4.224c0 .32.032.536.096.648.064.112.187.168.368.168.139 0 .277-.027.416-.08.139-.053.341-.155.608-.304l.288 1.264c-.203.17-.488.307-.856.408a4.114 4.114 0 0 1-1.096.152c-.32 0-.584-.043-.792-.128a1.087 1.087 0 0 1-.488-.376 1.48 1.48 0 0 1-.24-.6 4.4 4.4 0 0 1-.064-.784v-4.592zm6.576 6.288h-1.76v-7.36h1.76v7.36zm-2.016-9.728c0-.15.03-.293.088-.432.059-.139.141-.264.248-.376.107-.112.227-.2.36-.264.133-.064.28-.096.44-.096.15 0 .293.032.432.096s.264.152.376.264c.112.112.2.237.264.376s.096.283.096.432c0 .16-.032.307-.096.44a1.23 1.23 0 0 1-.264.36c-.112.107-.237.19-.376.248a1.098 1.098 0 0 1-.432.088c-.31 0-.576-.112-.8-.336a1.092 1.092 0 0 1-.336-.8zm8.192 9.728h-2.128l-2.944-7.36h1.84l2.224 5.904 2.32-5.904h1.728l-3.04 7.36zm5.856 0h-1.76v-7.36h1.76v7.36zm-2.016-9.728c0-.15.03-.293.088-.432.059-.139.141-.264.248-.376.107-.112.227-.2.36-.264.133-.064.28-.096.44-.096.15 0 .293.032.432.096s.264.152.376.264c.112.112.2.237.264.376s.096.283.096.432c0 .16-.032.307-.096.44a1.23 1.23 0 0 1-.264.36c-.112.107-.237.19-.376.248a1.098 1.098 0 0 1-.432.088c-.31 0-.576-.112-.8-.336a1.092 1.092 0 0 1-.336-.8zm6.304 3.44c-.352 0-.627.067-.824.2a.646.646 0 0 0-.296.568c0 .16.056.307.168.44.112.133.35.243.712.328l1.136.256c.448.096.808.235 1.08.416s.485.379.64.592c.155.213.259.432.312.656.053.224.08.432.08.624a2.2 2.2 0 0 1-.8 1.712 2.868 2.868 0 0 1-.928.504 3.78 3.78 0 0 1-1.216.184 4.785 4.785 0 0 1-1.568-.248c-.48-.165-.864-.35-1.152-.552l.416-1.52c.363.352.77.613 1.224.784.453.17.872.256 1.256.256.405 0 .715-.088.928-.264.213-.176.32-.419.32-.728a.67.67 0 0 0-.16-.456c-.107-.123-.32-.227-.64-.312l-1.536-.384c-.363-.085-.659-.208-.888-.368-.23-.16-.41-.339-.544-.536a1.803 1.803 0 0 1-.272-.616 2.772 2.772 0 0 1-.072-.608c0-.715.25-1.267.752-1.656.501-.39 1.152-.584 1.952-.584.416 0 .864.056 1.344.168.48.112.885.275 1.216.488l-.464 1.44c-.213-.17-.512-.344-.896-.52a3.036 3.036 0 0 0-1.28-.264zm9.008 6.288l-.128-1.008h-.064c-.288.363-.68.653-1.176.872a3.71 3.71 0 0 1-1.512.328c-.672 0-1.2-.195-1.584-.584-.384-.39-.576-.904-.576-1.544 0-.437.093-.83.28-1.176.187-.347.456-.64.808-.88.352-.24.773-.424 1.264-.552a6.533 6.533 0 0 1 1.648-.192h.688v-.24c0-.416-.133-.72-.4-.912-.277-.192-.71-.288-1.296-.288-.79 0-1.493.176-2.112.528l-.336-1.328c.715-.416 1.579-.624 2.592-.624 1.067 0 1.877.219 2.432.656.256.203.467.464.632.784.165.32.248.704.248 1.152v5.008h-1.408zm-2.192-1.232c.341 0 .683-.083 1.024-.248.341-.165.613-.387.816-.664v-1.456h-.304c-.875 0-1.512.112-1.912.336-.4.224-.6.581-.6 1.072 0 .64.325.96.976.96zm5.84-5.056h-.912v-.96l1.04-.16.288-2.176h1.344v2.224h1.408v1.072h-1.408v4.224c0 .32.032.536.096.648.064.112.187.168.368.168.139 0 .277-.027.416-.08.139-.053.341-.155.608-.304l.288 1.264c-.203.17-.488.307-.856.408a4.114 4.114 0 0 1-1.096.152c-.32 0-.584-.043-.792-.128a1.087 1.087 0 0 1-.488-.376 1.48 1.48 0 0 1-.24-.6 4.4 4.4 0 0 1-.064-.784v-4.592zm6.576 6.288h-1.76v-7.36h1.76v7.36zm-2.016-9.728c0-.15.03-.293.088-.432.059-.139.141-.264.248-.376.107-.112.227-.2.36-.264.133-.064.28-.096.44-.096.15 0 .293.032.432.096s.264.152.376.264c.112.112.2.237.264.376s.096.283.096.432c0 .16-.032.307-.096.44a1.23 1.23 0 0 1-.264.36c-.112.107-.237.19-.376.248a1.098 1.098 0 0 1-.432.088c-.31 0-.576-.112-.8-.336a1.092 1.092 0 0 1-.336-.8zm7.344 2.128c.65 0 1.21.11 1.68.328.47.219.856.512 1.16.88.304.368.528.79.672 1.264.144.475.216.973.216 1.496s-.072 1.016-.216 1.48a3.3 3.3 0 0 1-.672 1.216 3.219 3.219 0 0 1-1.152.824c-.464.203-1.01.304-1.64.304-.65 0-1.21-.107-1.68-.32a3.355 3.355 0 0 1-1.168-.856 3.487 3.487 0 0 1-.688-1.24 4.879 4.879 0 0 1-.224-1.488c0-.523.075-1.019.224-1.488.15-.47.376-.883.68-1.24.304-.357.69-.64 1.16-.848.47-.208 1.019-.312 1.648-.312zm.032 6.464c.31 0 .579-.067.808-.2.23-.133.419-.315.568-.544.15-.23.259-.493.328-.792.07-.299.104-.613.104-.944 0-.341-.037-.67-.112-.984a2.654 2.654 0 0 0-.344-.832 1.824 1.824 0 0 0-.584-.576 1.59 1.59 0 0 0-.848-.216c-.31 0-.576.067-.8.2a1.656 1.656 0 0 0-.552.536 2.47 2.47 0 0 0-.32.784 4.56 4.56 0 0 0 0 1.928c.07.315.181.595.336.84.155.245.35.44.584.584.235.144.512.216.832.216zm10.24 1.136v-4.864c0-.875-.373-1.312-1.12-1.312-.181 0-.376.032-.584.096a2.45 2.45 0 0 0-.6.28 2.333 2.333 0 0 0-.52.456c-.155.181-.27.39-.344.624v4.72h-1.76v-7.36h1.376l.08 1.088h.064a2.127 2.127 0 0 1 1.048-1 3.608 3.608 0 0 1 1.528-.328c.352 0 .683.045.992.136.31.09.584.237.824.44s.43.47.568.8c.139.33.208.736.208 1.216v5.008h-1.76zM307.328 405.96h4.4v1.6h-6.24V397h1.84v8.96zm8.816-6c.65 0 1.21.11 1.68.328.47.219.856.512 1.16.88.304.368.528.79.672 1.264.144.475.216.973.216 1.496s-.072 1.016-.216 1.48a3.3 3.3 0 0 1-.672 1.216 3.219 3.219 0 0 1-1.152.824c-.464.203-1.01.304-1.64.304-.65 0-1.21-.107-1.68-.32a3.355 3.355 0 0 1-1.168-.856 3.487 3.487 0 0 1-.688-1.24 4.879 4.879 0 0 1-.224-1.488c0-.523.075-1.019.224-1.488.15-.47.376-.883.68-1.24.304-.357.69-.64 1.16-.848.47-.208 1.019-.312 1.648-.312zm.032 6.464c.31 0 .579-.067.808-.2.23-.133.419-.315.568-.544.15-.23.259-.493.328-.792.07-.299.104-.613.104-.944 0-.341-.037-.67-.112-.984a2.654 2.654 0 0 0-.344-.832 1.824 1.824 0 0 0-.584-.576 1.59 1.59 0 0 0-.848-.216c-.31 0-.576.067-.8.2a1.656 1.656 0 0 0-.552.536 2.47 2.47 0 0 0-.32.784 4.56 4.56 0 0 0 0 1.928c.07.315.181.595.336.84.155.245.35.44.584.584.235.144.512.216.832.216zm10.736-3.984l-1.584 5.12H323.2l-2.672-7.36h1.84l1.92 5.648 1.744-5.648h1.76l1.744 5.648 1.92-5.648h1.808l-2.672 7.36h-2.096l-1.584-5.12zm-20.32 20.608h-.36a4.96 4.96 0 0 1-.392-.016v4.528H304V417l.584-.032c.219-.01.44-.019.664-.024.224-.005.435-.01.632-.016.197-.005.355-.008.472-.008 1.365 0 2.405.259 3.12.776.715.517 1.072 1.272 1.072 2.264 0 .63-.155 1.195-.464 1.696-.31.501-.827.875-1.552 1.12l3.872 4.784h-2.128l-3.68-4.512zm-.08-4.592h-.304c-.117 0-.24.005-.368.016v3.04h.992c.576 0 1.013-.144 1.312-.432.299-.288.448-.699.448-1.232 0-.48-.147-.832-.44-1.056-.293-.224-.84-.336-1.64-.336zm11.392-1.536c.832 0 1.568.144 2.208.432.64.288 1.179.68 1.616 1.176.437.496.768 1.07.992 1.72.224.65.336 1.333.336 2.048 0 .704-.11 1.384-.328 2.04a5.047 5.047 0 0 1-.992 1.744 4.878 4.878 0 0 1-1.648 1.216c-.656.304-1.421.456-2.296.456-.853 0-1.595-.144-2.224-.432a4.447 4.447 0 0 1-1.568-1.168 4.954 4.954 0 0 1-.936-1.704 6.609 6.609 0 0 1-.312-2.04c0-.757.115-1.47.344-2.136a5.126 5.126 0 0 1 1-1.744 4.685 4.685 0 0 1 1.616-1.176c.64-.288 1.37-.432 2.192-.432zm-.08 9.264c.587 0 1.085-.099 1.496-.296.41-.197.75-.47 1.016-.816.267-.347.461-.755.584-1.224.123-.47.184-.97.184-1.504 0-.576-.064-1.099-.192-1.568a3.405 3.405 0 0 0-.592-1.216 2.667 2.667 0 0 0-1.016-.792c-.41-.187-.893-.28-1.448-.28-.565 0-1.048.093-1.448.28a2.56 2.56 0 0 0-.976.776c-.25.33-.432.725-.544 1.184a6.409 6.409 0 0 0-.168 1.52c0 1.301.267 2.283.8 2.944s1.301.992 2.304.992zm9.104 1.376h-1.84V417h1.84v10.56zm4.448-6.288c-.352 0-.627.067-.824.2a.646.646 0 0 0-.296.568c0 .16.056.307.168.44.112.133.35.243.712.328l1.136.256c.448.096.808.235 1.08.416s.485.379.64.592c.155.213.259.432.312.656.053.224.08.432.08.624a2.2 2.2 0 0 1-.8 1.712 2.868 2.868 0 0 1-.928.504 3.78 3.78 0 0 1-1.216.184 4.785 4.785 0 0 1-1.568-.248c-.48-.165-.864-.35-1.152-.552l.416-1.52c.363.352.77.613 1.224.784.453.17.872.256 1.256.256.405 0 .715-.088.928-.264.213-.176.32-.419.32-.728a.67.67 0 0 0-.16-.456c-.107-.123-.32-.227-.64-.312l-1.536-.384c-.363-.085-.659-.208-.888-.368-.23-.16-.41-.339-.544-.536a1.803 1.803 0 0 1-.272-.616 2.772 2.772 0 0 1-.072-.608c0-.715.25-1.267.752-1.656.501-.39 1.152-.584 1.952-.584.416 0 .864.056 1.344.168.48.112.885.275 1.216.488l-.464 1.44c-.213-.17-.512-.344-.896-.52a3.036 3.036 0 0 0-1.28-.264zM73.104 185.504l3.504-8.064h2.096V188H76.88v-6.96L73.84 188h-1.472l-3.12-6.96V188h-1.84v-10.56h2.096l3.6 8.064zM82.976 188h-1.76v-7.36h1.76V188zm-2.016-9.728c0-.15.03-.293.088-.432.059-.139.141-.264.248-.376.107-.112.227-.2.36-.264.133-.064.28-.096.44-.096.15 0 .293.032.432.096s.264.152.376.264c.112.112.2.237.264.376s.096.283.096.432c0 .16-.032.307-.096.44a1.23 1.23 0 0 1-.264.36c-.112.107-.237.19-.376.248a1.098 1.098 0 0 1-.432.088c-.31 0-.576-.112-.8-.336a1.092 1.092 0 0 1-.336-.8zm6.464 3.44c-.352 0-.627.067-.824.2a.646.646 0 0 0-.296.568c0 .16.056.307.168.44.112.133.35.243.712.328l1.136.256c.448.096.808.235 1.08.416s.485.379.64.592c.155.213.259.432.312.656.053.224.08.432.08.624a2.2 2.2 0 0 1-.8 1.712 2.868 2.868 0 0 1-.928.504 3.78 3.78 0 0 1-1.216.184 4.785 4.785 0 0 1-1.568-.248c-.48-.165-.864-.35-1.152-.552l.416-1.52c.363.352.77.613 1.224.784.453.17.872.256 1.256.256.405 0 .715-.088.928-.264.213-.176.32-.419.32-.728a.67.67 0 0 0-.16-.456c-.107-.123-.32-.227-.64-.312l-1.536-.384c-.363-.085-.659-.208-.888-.368-.23-.16-.41-.339-.544-.536a1.803 1.803 0 0 1-.272-.616 2.772 2.772 0 0 1-.072-.608c0-.715.25-1.267.752-1.656.501-.39 1.152-.584 1.952-.584.416 0 .864.056 1.344.168.48.112.885.275 1.216.488l-.464 1.44c-.213-.17-.512-.344-.896-.52a3.036 3.036 0 0 0-1.28-.264zm6.384-1.072v4.784c0 .437.115.77.344 1 .23.23.525.344.888.344.373 0 .715-.125 1.024-.376.31-.25.539-.61.688-1.08v-4.672h1.776V188h-1.376l-.096-1.024h-.064a1.789 1.789 0 0 1-.448.6 2.243 2.243 0 0 1-.6.368 3 3 0 0 1-.68.192 4.376 4.376 0 0 1-.688.056c-.352 0-.68-.043-.984-.128a2.065 2.065 0 0 1-.8-.424 2.024 2.024 0 0 1-.544-.784c-.133-.325-.2-.728-.2-1.208v-5.008h1.76zm9.168 1.072c-.352 0-.627.067-.824.2a.646.646 0 0 0-.296.568c0 .16.056.307.168.44.112.133.35.243.712.328l1.136.256c.448.096.808.235 1.08.416s.485.379.64.592c.155.213.259.432.312.656.053.224.08.432.08.624a2.2 2.2 0 0 1-.8 1.712 2.868 2.868 0 0 1-.928.504 3.78 3.78 0 0 1-1.216.184 4.785 4.785 0 0 1-1.568-.248c-.48-.165-.864-.35-1.152-.552l.416-1.52c.363.352.77.613 1.224.784.453.17.872.256 1.256.256.405 0 .715-.088.928-.264.213-.176.32-.419.32-.728a.67.67 0 0 0-.16-.456c-.107-.123-.32-.227-.64-.312l-1.536-.384c-.363-.085-.659-.208-.888-.368-.23-.16-.41-.339-.544-.536a1.803 1.803 0 0 1-.272-.616 2.772 2.772 0 0 1-.072-.608c0-.715.25-1.267.752-1.656.501-.39 1.152-.584 1.952-.584.416 0 .864.056 1.344.168.48.112.885.275 1.216.488l-.464 1.44c-.213-.17-.512-.344-.896-.52a3.036 3.036 0 0 0-1.28-.264zm8.032-1.312c.939 0 1.664.237 2.176.712.512.475.768 1.144.768 2.008 0 .117-.008.243-.024.376a4.62 4.62 0 0 1-.064.392 2.435 2.435 0 0 1-.096.344 1.197 1.197 0 0 1-.12.248h-4.656c.021.32.08.621.176.904.096.283.235.528.416.736.181.208.403.373.664.496s.568.184.92.184c.395 0 .813-.075 1.256-.224.443-.15.819-.336 1.128-.56l.288 1.312c-.139.085-.31.179-.512.28a5.263 5.263 0 0 1-.688.28c-.256.085-.53.157-.824.216-.293.059-.6.088-.92.088-.597 0-1.125-.104-1.584-.312a3.305 3.305 0 0 1-1.152-.848 3.694 3.694 0 0 1-.704-1.24 4.53 4.53 0 0 1-.24-1.472c0-.523.083-1.021.248-1.496.165-.475.408-.893.728-1.256s.717-.648 1.192-.856c.475-.208 1.016-.312 1.624-.312zm-.048 1.376c-.448 0-.83.13-1.144.392-.315.261-.541.616-.68 1.064h3.056a.586.586 0 0 0 .024-.112c.005-.043.008-.096.008-.16 0-.341-.117-.624-.352-.848-.235-.224-.539-.336-.912-.336zm11.984-1.376c.65 0 1.21.11 1.68.328.47.219.856.512 1.16.88.304.368.528.79.672 1.264.144.475.216.973.216 1.496s-.072 1.016-.216 1.48a3.3 3.3 0 0 1-.672 1.216 3.219 3.219 0 0 1-1.152.824c-.464.203-1.01.304-1.64.304-.65 0-1.21-.107-1.68-.32a3.355 3.355 0 0 1-1.168-.856 3.487 3.487 0 0 1-.688-1.24 4.879 4.879 0 0 1-.224-1.488c0-.523.075-1.019.224-1.488.15-.47.376-.883.68-1.24.304-.357.69-.64 1.16-.848.47-.208 1.019-.312 1.648-.312zm.032 6.464c.31 0 .579-.067.808-.2.23-.133.419-.315.568-.544.15-.23.259-.493.328-.792.07-.299.104-.613.104-.944 0-.341-.037-.67-.112-.984a2.654 2.654 0 0 0-.344-.832 1.824 1.824 0 0 0-.584-.576 1.59 1.59 0 0 0-.848-.216c-.31 0-.576.067-.8.2a1.656 1.656 0 0 0-.552.536 2.47 2.47 0 0 0-.32.784 4.56 4.56 0 0 0 0 1.928c.07.315.181.595.336.84.155.245.35.44.584.584.235.144.512.216.832.216zm5.824-5.152h-.912v-.912l.912-.144c0-.608.019-1.125.056-1.552.037-.427.088-.787.152-1.08a3.85 3.85 0 0 1 .216-.712c.08-.181.163-.33.248-.448.213-.277.493-.477.84-.6a3.409 3.409 0 0 1 1.144-.184c.053 0 .139.003.256.008.117.005.248.019.392.04.144.021.293.056.448.104.155.048.296.11.424.184l-.4 1.36a5.884 5.884 0 0 0-.528-.264 1.726 1.726 0 0 0-.72-.168.62.62 0 0 0-.352.096c-.096.064-.176.181-.24.352a2.7 2.7 0 0 0-.136.688 12.4 12.4 0 0 0-.04 1.104v1.056h1.408v1.072h-1.408V188h-1.76v-6.288zm-58.512 20.32h-.536c-.176 0-.344-.005-.504-.016V206h-1.84v-10.56a23.494 23.494 0 0 1 1.208-.056l.688-.016c.23-.005.445-.008.648-.008.597 0 1.141.072 1.632.216.49.144.912.36 1.264.648.352.288.624.643.816 1.064.192.421.288.91.288 1.464 0 .448-.075.87-.224 1.264-.15.395-.373.741-.672 1.04a3.19 3.19 0 0 1-1.144.712c-.464.176-1.005.264-1.624.264zm-.08-5.136h-.496c-.16 0-.315.005-.464.016v3.568c.15.01.307.016.472.016h.52c.576 0 1.01-.16 1.304-.48.293-.32.44-.784.44-1.392 0-.512-.13-.928-.392-1.248-.261-.32-.723-.48-1.384-.48zM77.744 206h-1.84v-10.56h1.84V206zm4.656 0h-1.84v-10.56h1.84V206zm4.752-6.288c-.352 0-.627.067-.824.2a.646.646 0 0 0-.296.568c0 .16.056.307.168.44.112.133.35.243.712.328l1.136.256c.448.096.808.235 1.08.416s.485.379.64.592c.155.213.259.432.312.656.053.224.08.432.08.624a2.2 2.2 0 0 1-.8 1.712 2.868 2.868 0 0 1-.928.504 3.78 3.78 0 0 1-1.216.184 4.785 4.785 0 0 1-1.568-.248c-.48-.165-.864-.35-1.152-.552l.416-1.52c.363.352.77.613 1.224.784.453.17.872.256 1.256.256.405 0 .715-.088.928-.264.213-.176.32-.419.32-.728a.67.67 0 0 0-.16-.456c-.107-.123-.32-.227-.64-.312l-1.536-.384c-.363-.085-.659-.208-.888-.368-.23-.16-.41-.339-.544-.536a1.803 1.803 0 0 1-.272-.616 2.772 2.772 0 0 1-.072-.608c0-.715.25-1.267.752-1.656.501-.39 1.152-.584 1.952-.584.416 0 .864.056 1.344.168.48.112.885.275 1.216.488l-.464 1.44c-.213-.17-.512-.344-.896-.52a3.036 3.036 0 0 0-1.28-.264z"/></g></svg>